<svg id="Слой_1" data-name="Слой 1" xmlns="http://www.w3.org/2000/svg" xmlns:xlink="http://www.w3.org/1999/xlink" viewBox="0 0 420 80"><defs><style>.cls-1{fill:url(#linear-gradient);}.cls-2{fill:#dd2f29;}.cls-3{fill:#782221;}.cls-4{fill:url(#New_Gradient_Swatch_1);}.cls-5{fill:#black;}</style><linearGradient id="linear-gradient" x1="44.25" y1="66.87" x2="82.85" y2="42.01" gradientUnits="userSpaceOnUse"><stop offset="0" stop-color="#f2b0a6"/><stop offset="1" stop-color="#782221"/></linearGradient><linearGradient id="New_Gradient_Swatch_1" x1="53.33" y1="55.65" x2="102.89" y2="16.07" gradientUnits="userSpaceOnUse"><stop offset="0" stop-color="#e0392f"/><stop offset="1" stop-color="#ec6e67"/></linearGradient></defs><title>Монтажная область 1</title><polygon class="cls-1" points="41.07 56.68 109.76 24.52 45.5 78.31 41.07 56.68"/><polygon class="cls-2" points="45.5 78.31 62.32 64.23 51.9 60.53 45.5 78.31"/><polygon class="cls-3" points="57.23 68.49 62.32 64.23 51.9 60.53 50.89 63.35 57.23 68.49"/><polygon class="cls-4" points="23 50.26 41.07 56.68 104.88 27.12 51.9 60.53 74.33 68.49 109.76 24.52 23 50.26"/><path class="cls-5" d="M397.45,49.75c3.49,0,6,.82,7.39,2.47S407,56.38,407,59.76s-.73,6.16-2.19,7.91-3.95,2.61-7.47,2.61h-17.2V62.86h16.51a1.74,1.74,0,0,0,1.49-.69,3.73,3.73,0,0,0,.52-2.24,3.5,3.5,0,0,0-.52-2.22,1.85,1.85,0,0,0-1.49-.6h-7q-5.24,0-7.4-2.41t-2.15-7.48q0-5.3,2.18-7.91t7.48-2.62h16.11v7.42H390.49a1.74,1.74,0,0,0-1.49.69,3.75,3.75,0,0,0-.52,2.24A3.2,3.2,0,0,0,389,49.2a1.93,1.93,0,0,0,1.49.55Z"/><path class="cls-5" d="M364.09,36.69a9.37,9.37,0,0,1,5.72,1.64,11.53,11.53,0,0,1,3.48,4.11A17.77,17.77,0,0,1,375,47.79a34.53,34.53,0,0,1,.46,5.29,37.21,37.21,0,0,1-.46,5.47,19.69,19.69,0,0,1-1.73,5.61,12.32,12.32,0,0,1-3.48,4.37,8.91,8.91,0,0,1-5.72,1.75H346.14V23h8.57V36.69Zm3.05,16.51q0-1.26-.12-2.88a14.45,14.45,0,0,0-.52-3A6.6,6.6,0,0,0,365.35,45a2.44,2.44,0,0,0-2-1h-8.63V62.92h8.63a2.43,2.43,0,0,0,2-1,7,7,0,0,0,1.15-2.56,19.1,19.1,0,0,0,.49-3.2c.08-1.11.12-2.09.12-2.93Z"/><path class="cls-5" d="M328.65,36.69q10.53,0,10.53,10.53V70.28h-20q-10.53,0-10.53-10V59.12q0-9.32,10.53-9.31h11.45V46.07a1.78,1.78,0,0,0-2-2H311.17V36.69Zm2,19.27H319.22a1.75,1.75,0,0,0-2,2v3.56q0,1.44,2,1.44h11.45V56Z"/><path class="cls-5" d="M285.86,55.5q0,6.27,5.81,6.27H306v8.51H291.78q-14.55,0-14.55-14.78V24.15h8.63V55.5Z"/><path class="cls-5" d="M253.76,49.75q5.24,0,7.39,2.47t2.16,7.54q0,5.28-2.19,7.91t-7.48,2.61h-17.2V62.86H253a1.76,1.76,0,0,0,1.5-.69,3.81,3.81,0,0,0,.52-2.24,3.57,3.57,0,0,0-.52-2.22,1.87,1.87,0,0,0-1.5-.6h-7q-5.24,0-7.39-2.41t-2.16-7.48q0-5.3,2.19-7.91t7.48-2.62h16.1v7.42H246.8a1.77,1.77,0,0,0-1.5.69,3.84,3.84,0,0,0-.51,2.24,3.26,3.26,0,0,0,.51,2.16,2,2,0,0,0,1.5.55Z"/><polygon class="cls-5" points="221.55 23 230.12 23 230.12 29.67 221.55 29.67 221.55 23 221.55 23"/><polygon class="cls-5" points="221.55 36.69 230.12 36.69 230.12 70.28 221.55 70.28 221.55 36.69 221.55 36.69"/><path class="cls-5" d="M199.05,70.28V47.1q0-10.41,10.59-10.41h6.9v7.36h-6.9c-1.34,0-2,.64-2,1.9V70.28Z"/><path class="cls-5" d="M181.57,36.69q10.53,0,10.52,10.53V70.28h-20q-10.51,0-10.52-10V59.12q0-9.32,10.52-9.31h11.45V46.07a1.78,1.78,0,0,0-2-2H164.08V36.69Zm2,19.27H172.13a1.75,1.75,0,0,0-2,2v3.56q0,1.44,2,1.44h11.45V56Z"/><polygon class="cls-5" points="147.86 23 156.43 23 156.43 70.28 147.86 70.28 147.86 23 147.86 23"/><path class="cls-5" d="M132.33,24.15h8.57V70.28h-8.57V58.55h-17l-9,11.73H96.93l35.4-46.13Zm0,27.27V36.37L120.79,51.42Z"/></svg>