<?xml version="1.0" encoding="utf-8"?>
<!-- Generator: Adobe Adobe Illustrator 24.2.0, SVG Export Plug-In . SVG Version: 6.00 Build 0)  -->
<svg version="1.1" id="Layer_1" xmlns="http://www.w3.org/2000/svg" xmlns:xlink="http://www.w3.org/1999/xlink" x="0px" y="0px"
	 width="595.28px" height="94px" viewBox="0 0 595.28 94" style="enable-background:new 0 0 595.28 94;" xml:space="preserve">
<style type="text/css">
	.st0{fill:#093BC9;}
	.st1{fill:#FFFFFF;}
</style>
<g>
	<g transform="translate(0.000000,127.000000) scale(0.100000,-0.100000)">
		<path class="st0" d="M3905.55,1192.71c-137.58-29.26-244.04-133.23-281.39-276.41c-14.32-54.16-14.32-163.73,0-217.89
			c19.3-72.84,51.05-128.87,103.34-180.54c73.46-72.84,158.75-105.83,270.81-105.83c129.49,0.62,232.21,46.07,301.94,134.47
			l24.9,31.75l-51.67,51.05l-51.67,51.05l-16.19-24.28c-25.52-38.6-60.39-69.73-97.74-87.78c-30.5-14.32-41.71-16.19-105.83-16.19
			c-65.37,0-74.71,1.25-108.95,17.43c-88.4,41.09-140.07,128.87-140.07,237.81c0,170.58,125.13,283.26,286.37,257.74
			c71.59-10.58,120.15-43.58,172.45-114.55l13.07-18.68l47.31,46.69c26.15,25.52,47.31,51.67,47.31,57.9
			c0,6.85-20.54,32.37-44.82,57.27C4180.72,1186.48,4047.49,1222.59,3905.55,1192.71z"/>
		<path class="st0" d="M5399.67,1192.71c-138.21-30.5-243.42-131.98-281.39-270.81c-14.94-54.78-14.94-174.31,0-229.1
			c34.24-125.75,118.91-219.76,234.7-259.6c67.86-23.66,170.58-27.39,240.93-9.96c77.82,19.92,117.04,41.71,170.58,94.63
			c52.29,51.67,84.04,107.7,103.34,180.54c14.32,54.16,14.32,163.73,0,217.89c-34.24,130.74-125.75,230.34-247.15,268.32
			C5565.26,1202.05,5458.81,1205.78,5399.67,1192.71z M5533.51,1065.09c54.78-8.72,87.16-24.28,125.13-59.76
			c57.9-54.16,84.04-127.62,78.44-219.14c-4.36-71.59-22.41-117.04-65.37-163.11c-48.56-52.92-87.16-69.73-166.22-72.84
			c-51.67-1.87-68.48,0-98.36,10.58c-71.59,24.9-125.75,82.18-148.17,157.5c-17.43,56.65-14.32,145.68,6.85,199.84
			c34.86,91.51,104.59,139.45,221,153.15C5490.56,1071.31,5511.1,1068.82,5533.51,1065.09z"/>
		<path class="st0" d="M407.45,1185.24c-3.11-4.98-331.82-737.1-338.04-753.28c-2.49-6.23,13.7-7.47,75.33-6.23l79.06,1.87
			l125.75,287.62c69.1,158.13,127.62,285.13,130.11,283.26c1.87-2.49,59.14-130.11,126.38-284.5
			c67.86-153.77,124.51-282.64,127-285.13c2.49-2.49,38.6-3.74,79.69-3.11l75.33,1.87L717.48,807.35l-169.96,379.75l-68.48,1.87
			C441.69,1189.6,409.32,1188.35,407.45,1185.24z"/>
		<path class="st0" d="M1032.49,807.35V424.48h71.59h71.59l1.24,244.66l1.87,244.66l196.1-244.04l196.1-244.66h51.67l51.05-0.62
			v382.87v382.87h-71.59h-71.59V943.69V696.54l-197.35,247.15l-197.35,246.53h-51.67h-51.67V807.35z"/>
		<path class="st0" d="M1953.86,807.35V424.48h68.48h68.48l1.25,245.91l1.87,245.91l197.97-245.91l197.97-245.91h49.18h49.8v382.87
			v382.87h-68.48h-68.48l-1.25-247.15l-1.87-247.77l-198.59,247.77l-197.97,247.15h-49.18h-49.18V807.35z"/>
		<path class="st0" d="M2856.55,1124.85v-65.37h275.79h275.17l31.13,60.39c17.43,33.62,32.37,62.88,33,65.37
			c1.25,3.11-136.34,4.98-306.29,4.98h-308.78V1124.85z"/>
		<path class="st0" d="M4409.19,1160.96c12.45-16.81,31.75-46.07,42.96-65.37l19.92-36.11h98.36h97.74v-317.5v-317.5h71.59h71.59
			v317.5v317.5h98.99c93.38,0,99.61,0.62,103.34,12.45c1.87,6.85,18.68,32.99,36.73,57.9c18.05,25.52,34.86,49.18,37.35,52.92
			c3.11,5.6-83.42,7.47-348,7.47h-352.99L4409.19,1160.96z"/>
		<path class="st0" d="M2856.55,807.35v-65.37h252.13h252.13v65.37v65.37h-252.13h-252.13V807.35z"/>
		<path class="st0" d="M2856.55,492.96v-68.48h308.16h308.16l-18.68,33c-10.58,17.43-26.77,48.56-35.49,68.48l-16.19,35.49h-272.68
			h-273.3V492.96z"/>
	</g>
</g>
</svg>
