<?xml version="1.0" encoding="utf-8"?>
<!-- Generator: Adobe Illustrator 22.1.0, SVG Export Plug-In . SVG Version: 6.00 Build 0)  -->
<svg version="1.1" id="Layer_1" xmlns="http://www.w3.org/2000/svg" xmlns:xlink="http://www.w3.org/1999/xlink" x="0px" y="0px"
	 viewBox="0 0 953.3 409.8" style="enable-background:new 0 0 953.3 409.8;" xml:space="preserve">
<style type="text/css">
	.st0{fill:#black;}
</style>
<g>
	<path class="st0" d="M574.1,362.3c0,2.7-1.6,5.1-3.9,6.1c-0.9,0.4-1.8,0.6-2.8,0.6h-63.9l0,0H467h-10.3h-79c-0.9,0-1.7-0.2-2.5-0.5
		c-1.4-0.6-2.5-1.6-3.3-2.9c-0.6-1-0.9-2.1-0.9-3.3l-0.2-8.8v-241c0-0.2,0-0.4,0-0.5c0.1-1.4,0.7-2.7,1.5-3.7
		c0.5-0.7,1.2-1.2,1.9-1.7c1-0.5,2-0.8,3.2-0.8H451c3.7,0,6.7-3,6.7-6.7V77.4c0-3.7-3-6.7-6.6-6.7H236.2c-0.3,0-0.5,0-0.7,0.1
		c-2.4,0.3-4.4,1.8-5.4,4c-0.4,0.8-0.5,1.7-0.5,2.6v25.3c0,3.7,3,6.7,6.7,6.7h71.9c2,0,3.8,0.9,5,2.3c1,1.2,1.7,2.7,1.7,4.4v245.5
		c0,2.4-1.1,4.5-2.9,5.8c-0.6,0.4-1.2,0.8-2,1.1c-0.7,0.2-1.3,0.3-1.7,0.4c-0.4,0.1-0.8,0.1-1.1,0.1H205.3c-1.4,0-2.7-0.5-3.7-1.3
		c-0.4-0.3-0.8-0.7-1.2-1.1c-0.1-0.1-0.2-0.3-0.3-0.4c-0.7-1.1-1.2-2.4-1.2-3.8v-85.3c0-1.7-0.7-3.3-1.7-4.5c-1.2-1.4-3-2.3-4.9-2.3
		h-34c-1.9,0-4,0.8-5.6,2.1c-0.8,0.6-1.6,1.4-2.2,2.3c-0.5,0.6-0.9,1.2-1.1,1.9c0,0,0,0.1,0,0.2l-1.1,3.1l-8.1,22.3l-0.5,1.4
		l-0.4,1.1l-4.1,11.2L123.6,348l-3.5,9.8l-1.8,5c-0.9,2.6-3.3,4.7-5.9,5.7c-0.2,0.1-0.4,0.1-0.5,0.2c-0.9,0.3-1.7,0.4-2.5,0.4H4.4
		c-0.4,0-2.5-0.2-3.7-1.7c-0.9-1.2-1-3-0.2-4.5l6.3-15.6l4.7-11.6l1.4-3.5L24,305.3l9.3-22.7l8.1-20l4.2-10.4l8.1-20l2.3-5.7l7-17
		l8.7-21.3l3.5-8.5l1.9-4.7l7-17.1l9.3-22.7l8.1-20l4.2-10.4l1.8-4.4l15.6-38.3l3.2-7.8l2.8-7c0.3-0.9,0.9-1.6,1.5-2.4
		c1.9-2.3,4.9-3.9,7.7-3.9h31.1c3.7,0,6.7,3,6.7,6.7v13.2c0,3.7-3,6.7-6.7,6.7h-8.7c-1.8,0-3.8,0.7-5.4,1.8
		c-1.6,1.1-2.9,2.5-3.6,4.1c0,0.1-0.1,0.2-0.2,0.3L146.6,86l-2.9,7l-0.5,1.3l-5.7,14l-0.8,2L119.3,153l-2.8,6.8l-1.4,3.5l-1.6,4.1
		l-0.6,1.4l-5.9,14.5L97.7,206l-1.1,2.5l0,0l-2.1,5.1l-5.6,13.8l-3.6,8.9l-8.7,21.4l-2,4.9l-7.3,17.9l-3.2,7.9l-4.9,12.1L55,310.9
		l-8.1,20l-0.3,0.8c-1.1,2.7-0.1,5.1,2.2,5.9c0.5,0.2,1.2,0.4,1.9,0.4h37.2c3.7,0,7.7-2.8,8.9-6.3l1.7-4.7l0.3-0.9l4-11.1l0.4-1.1
		l2.1-5.7l7.6-21.1l14.9-41.2l0.2-0.4c1.2-3.3,4.8-5.9,8.2-6.3c0.2,0,0.4-0.1,0.7-0.1h86c1.1,0,2.2,0.4,3.2,0.9
		c2.1,1.1,3.5,3.3,3.5,5.8v84.5c0,2.5,1.4,4.6,3.3,5.8c1,0.5,2.1,0.9,3.3,0.9h41.3c3.2,0,6-2.4,6.5-5.5c0.1-0.4,0.1-0.8,0.1-1.2
		V147.2c0-1.1-0.3-2.1-0.7-3c-1.1-2.2-3.3-3.7-5.9-3.7h-71.9c-3.7,0-6.7-3-6.7-6.7V47.9c0-3.7,3-6.7,6.7-6.7h276.5
		c3.5,0,6.3,2.7,6.6,6.2c0,0.2,0.1,0.4,0.1,0.5v82.2c0,0.1,0,0.2,0,0.3c-0.1,2.1-1.1,4-2.7,5.1c-1.1,0.8-2.5,1.3-3.9,1.3h-73.7
		c-3.7,0-6.7,3-6.7,6.7v186.9c0,3.3,2.4,6,5.4,6.6c0.4,0.1,0.8,0.1,1.2,0.1h128.2c1.2,0,2.3-0.4,3.3-0.9c1.9-1.2,3.3-3.3,3.3-5.8
		v-32.6c0-3.4-2.5-6.2-5.7-6.6c-0.3,0-0.6-0.1-0.9-0.1h-46.7c-3.7,0-6.6-3-6.6-6.7v-17.6c0-0.6,0.1-1.2,0.3-1.8
		c0.1-0.4,0.2-0.8,0.4-1.2c1.1-2.2,3.3-3.8,5.9-3.8h77.3c3.7,0,6.7,3,6.7,6.7v79.5L574.1,362.3z"/>
	<g>
		<rect x="623" class="st0" width="24.6" height="409.8"/>
		<g>
			<path class="st0" d="M739.3,244.9c-7.9,0-17.1-1.6-22.9-3.9l1.6-7.4c6.7,2.1,14.9,3.2,20.7,3.2c14.4,0,17.3-2.7,17.3-12.5
				c0-11-0.3-12.1-18.1-16.2c-19.5-4.6-21.2-9.3-21.2-23.3c0-12.8,6.2-19.7,25.5-19.7c7.2,0,16,0.9,22.1,2.7l-1,7.7
				c-6.2-1.3-15.4-2.2-21.8-2.2c-13.6,0-15.6,3.5-15.6,11.8c0,10.6,0.6,11.7,15.1,15.3c22.9,5.7,24.2,9.3,24.2,23.7
				C765.2,237.8,760.1,244.9,739.3,244.9z"/>
			<path class="st0" d="M877.6,243.4v-62.2c0-5.7-3-7.7-8.5-7.7c-7.4,0-20.2,3.8-30,8.8v61h-9.3v-62.2c0-5.7-3-7.7-8.5-7.7
				c-6.4,0-20.2,3.8-30,8.8v61H782v-76.8h8.2l0.6,6.9c8.3-3.9,22.3-8.5,31.7-8.5c8.3,0,13,3.2,15.1,8.5c9-4.1,23.2-8.5,32.7-8.5
				c12.2,0,16.5,6.8,16.5,17.4v61h-9.2V243.4z"/>
			<path class="st0" d="M927.4,244.9c-7.9,0-17.1-1.6-22.9-3.9l1.6-7.4c6.7,2.1,14.9,3.2,20.7,3.2c14.4,0,17.3-2.7,17.3-12.5
				c0-11-0.3-12.1-18.1-16.2c-19.5-4.6-21.2-9.3-21.2-23.3c0-12.8,6.2-19.7,25.5-19.7c7.2,0,16,0.9,22.1,2.7l-1,7.7
				c-6.2-1.3-15.4-2.2-21.8-2.2c-13.6,0-15.6,3.5-15.6,11.8c0,10.6,0.6,11.7,15.1,15.3c22.9,5.7,24.2,9.3,24.2,23.7
				C953.4,237.8,948.2,244.9,927.4,244.9z"/>
		</g>
	</g>
</g>
</svg>
