<svg id="Слой_1" xmlns="http://www.w3.org/2000/svg" viewBox="0 0 298.1 109.8"><style>.st0{fill:#2376bc}.st1{fill:#fdfefe}</style><path class="st0" d="M149 .3c2.2-.3 4.4-.1 6.6-.2C163 .1 170.5 0 178 0c-3.2 4.2-6.6 8.3-9.9 12.5-1.4 1.8-2.8 3.6-4.2 5.2-3.6-4-6.9-8.1-10.4-12.1-1.6-1.8-3.2-3.4-4.5-5.3zm36.3-.4c7.8-.1 15.6 0 23.4-.1 2 0 4 0 6 .1-1.5 2.2-3.4 4.2-5.1 6.3-3.4 4.1-6.8 8.2-10.3 12.2-3.7-4.8-7.3-9.6-10.9-14.3-1-1.4-2.1-2.7-3.1-4.2zm67.2 1c.3-.3.7-.9 1.2-.9.6.4 1 .9 1.5 1.4 5.4 5.5 10.9 10.8 16.2 16.4-4.1.1-8.1-.1-12.2 0-6.7 0-13.4-.1-20.2-.1 1.2-1.7 2.6-3.3 3.9-5 3.2-3.9 6.4-7.8 9.6-11.8zM220.9.3c9.5 0 19-.2 28.5-.1-3.1 3.9-6.5 7.7-9.7 11.5-1.6 1.8-3.1 3.8-4.8 5.5-4.7-5.5-9.3-11.2-14-16.9zm-76.1.7c3.5 3.8 6.8 7.8 10.2 11.7 1.5 1.7 3 3.4 4.4 5.2-10.5 0-21.1-.2-31.6-.1 5.6-5.7 11.4-11.2 17-16.8zm32.9 4.5c1.2-1.4 2.4-2.8 3.7-4.2 3.8 4.1 7.3 8.3 11 12.5 1.3 1.5 2.7 3 3.9 4.6h-29.7c3.6-4.4 7.4-8.6 11.1-12.9zm35.2.9c1.4-1.6 2.7-3.3 4.1-4.8 3.7 4 7.3 8.1 11 12.1 1.3 1.4 2.6 2.8 3.8 4.4h-28.5c3.1-4.1 6.5-7.8 9.6-11.7zM6.9 24.2c7.2-6.1 19.2-5.4 25.5 1.7 5 5.4 5.8 14.6 1.1 20.4-1 1.3-2.3 2.4-3.6 3.4 2.2 1.2 4.4 2.6 6 4.6 2.9 3.5 4.1 8.2 3.9 12.7-.2 4.4-2.4 8.6-5.6 11.6-4.4 4.2-10.6 6.4-16.7 6.2H0V38.9c.1-5.6 2.6-11.2 6.9-14.7zm159.4-4.1c10.8-.1 21.5 0 32.3 0 0 21.6.2 43.2.2 64.8-2.6-4.8-5-9.8-7.5-14.7-6.6-13.1-13.1-26.2-19.7-39.3-1.8-3.7-3.6-7.2-5.3-10.8zm34.3.3c10.6-.1 21.2-.2 31.8-.1-8.5 16.8-17.3 33.6-25.9 50.4-2.3 4.4-4.5 8.9-6.9 13.3.2-21.2.8-42.4 1-63.6zm34.7-.1c8.8-.1 17.6 0 26.4 0 2.9 0 5.9-.1 8.8.1-1.4 1.7-3.1 3-4.6 4.5-5 4.7-10 9.4-14.9 14.1-.8.7-1.4 1.5-2.4 2-1.2.2-2.4.1-3.6.3-5 .5-9.7 3-12.8 7-2.2 2.9-3.6 6.4-4 10-.2 1.1-.1 2.3-1 3.1-5.2 4.8-10.2 9.6-15.3 14.4-3.1 2.8-6 5.8-9.2 8.5.8-2 1.8-3.8 2.8-5.7 9.9-19.5 19.9-38.9 29.8-58.3zm-101.2.4c4.9.2 9.8 0 14.7 0 4.8.1 9.5-.2 14.2 0 8.7 17 17.5 34 26.2 51 2.1 4.3 4.5 8.4 6.4 12.7-12.4-11.3-24.6-22.9-36.9-34.2-.5-.5-1.2-1-1.1-1.8-.2-1.8.1-3.6-.1-5.4 0-.5-.3-1-.8-1-2.1-.3-4.2.1-6.3-.1-.5 0-1-.4-1.4-.8l-13.5-12.6c-.4-.4-1-.9-1-1.5-.1-2 .4-4.2-.4-6.3zm-32.7 1c3-.1 5.9 0 8.9 0 .1 21 .1 42.1 0 63.1h-8.9c.1-21 .1-42.1 0-63.1zm23.4 0h8.8c.1 21 .1 42.1 0 63.1h-8.8c-.1-16.5 0-33 0-49.4 0-4.6-.1-9.2 0-13.7z"/><path class="st1" d="M150.9 27.8c2.1-.5 4.5.1 6.1 1.7 2.5 2.6 2.4 7.4-.5 9.7-2.5 2-6.5 1.9-8.8-.3-1.9-1.9-2.3-4.9-1.4-7.3.7-2 2.6-3.4 4.6-3.8zM16.5 29c3.4-.9 7.2.4 9.2 3.2 2.5 3.2 2.4 8.3-.4 11.3-1.8 1.9-4.3 2.8-6.9 2.8H10c-.1-3-.1-6 0-9 0-3.8 2.8-7.4 6.5-8.3z"/><path class="st0" d="M81.3 28.8c2.4-.6 5.3.4 6.4 2.7 1 2.2.7 5.3-1.3 6.9-2.2 1.8-5.8 1.7-7.8-.4-1.4-1.5-1.7-3.8-1.1-5.7.5-1.8 2.1-3.1 3.8-3.5zm69.6 0c2.4-.6 5.3.4 6.4 2.7 1 2.2.7 5.3-1.3 6.9-2.2 1.8-5.8 1.7-7.8-.4-1.4-1.4-1.6-3.6-1.2-5.4.3-2 2-3.4 3.9-3.8zm127.8 4.1h8.6c.2 3.4 0 6.7.1 10.1 3.4.1 6.7 0 10.1 0v8.2c-3.4 0-6.7-.1-10.1 0 0 4.5-.1 9 .1 13.5.2 3.5.8 7.3 3.5 9.7 1.9 1.9 4.6 2.6 7.2 2.9.1 2.9.1 5.9 0 8.8-5.2-.1-10.4-2.1-14-5.9-3.9-3.7-5.2-9.3-5.5-14.5-.1-4.9 0-9.7-.1-14.6h-4.4V43h4.5c0-3.3-.1-6.7 0-10.1zM62 43.2c2-1 4.3-1.2 6.5-1.2v9.4c-2.3-.4-4.8-.3-6.9.9-2.7 1.3-4.7 4.1-4.6 7.2v25.2h-8.8V42.9c2.7-.1 5.3-.1 8 0 0 1.5 0 3.1.1 4.6 1.7-1.5 3.4-3.3 5.7-4.3zm176 1.3c5-2.9 11.2-3 16.7-1.3 4.3 1.3 7.9 4.7 9.6 8.8 1.3 3.2 1.8 6.7 1.7 10.2v22.6h-8.7c-.1-7.7 0-15.3 0-23 0-2.7-.7-5.4-2.2-7.6-3.4-4.7-11.3-4.9-14.8-.3-1.9 2.4-2.4 5.5-2.4 8.5v22.3H229V62.1c0-2.7.3-5.5 1.2-8 1.3-4 4-7.6 7.8-9.6zM78.5 43c2.9-.1 5.8-.1 8.7 0v41.8c-2.9 0-5.8.1-8.7 0V43zm69.5 0c2.9-.1 5.8-.1 8.7 0v41.8c-2.9 0-5.8.1-8.7 0 .1-13.9 0-27.9 0-41.8z"/><path class="st1" d="M9.9 55.1c2.6-.2 5.2-.1 7.9-.1 3-.1 6.2.4 8.7 2.3 4.2 3 5.2 9.3 2.5 13.6-1.5 2.4-4 4.1-6.7 4.8-1.6.3-3.2.3-4.8.3-2.5 0-5 .1-7.5-.1 0-6.9 0-13.9-.1-20.8z"/><path d="M163.1 95.2c2.2-1.6 5.2-1.9 7.8-.9 2.3.9 4 2.8 4.8 5.1-1 0-2.1.1-3.1 0-.8-.6-1.3-1.5-2.1-2-1.8-1.2-4.5-1-6 .6-1.9 1.9-2.2 5.1-.6 7.2 1.3 1.9 3.9 2.6 6 1.7 1.1-.5 1.8-1.5 2.5-2.4h3.2c-.6 1.9-1.9 3.5-3.6 4.5-2.7 1.5-6.2 1.4-8.7-.3-1.8-1.2-3.1-3.2-3.5-5.4-.5-3.1.8-6.3 3.3-8.1zm41.7-1.3c2.9-.6 6.2.4 8.1 2.7 2.8 3.1 2.5 8.4-.6 11.2-3.2 3.1-9 2.9-12-.5-2.2-2.4-2.7-6-1.3-8.9 1.1-2.3 3.3-4 5.8-4.5zm-173.9.2h10v2.8h-3.3v12.8h-3.2V96.9H31c-.1-1-.1-1.9-.1-2.8zm33.1 0h8.9v2.8h-5.7v3.3h5.5v2.8h-5.5v3.9h5.7v2.8H64V94.1zm32.5 0h3.2v12.8h5.2v2.8h-8.4V94.1zm31.3 0h8.9v2.8H131v3.3h5.5v2.8H131v3.9h5.7v2.8h-8.9V94.1zm110.7 0h4.3c1.3 3.7 2.6 7.4 4 11.1 1.3-3.7 2.7-7.4 3.9-11.1 1.4-.1 2.9 0 4.3 0v15.6h-2.9c.1-4.2-.1-8.3.1-12.5-1.6 4.1-2.9 8.3-4.5 12.5h-2c-1.6-4.1-2.9-8.4-4.5-12.5.2 4.1.1 8.3.1 12.5h-2.9c.1-5.2.1-10.4.1-15.6z" fill="#0b0b0b"/><path class="st1" d="M205.4 96.7c2.6-.7 5.4 1 6 3.6 1 3-1.2 6.9-4.5 6.9-2.8.3-5.3-2.1-5.4-4.8-.3-2.5 1.3-5.2 3.9-5.7z"/></svg>