<svg width="300" height="300" viewBox="0 0 300 300" fill="none" xmlns="http://www.w3.org/2000/svg">
<path d="M0 45C0 20.1472 20.1472 0 45 0H255C279.853 0 300 20.1472 300 45V255C300 279.853 279.853 300 255 300H45C20.1472 300 0 279.853 0 255V45Z" fill="white"/>
<g filter="url(#filter0_d_2832_8028)">
<path fill-rule="evenodd" clip-rule="evenodd" d="M150 241C180.855 241 208.848 228.742 229.372 208.829C221.326 197.04 213.28 185.252 205.234 173.463L204.688 172.663L204.386 172.219C196.601 160.813 188.816 149.406 181.03 138H188.096L201.098 153.517C213.663 168.512 226.229 183.507 238.793 198.503C254.561 178.947 264 154.076 264 127C264 64.0395 212.96 13 150 13C87.0395 13 36 64.0395 36 127C36 154.076 45.4393 178.947 61.2066 198.503C71.8507 185.799 82.4953 173.096 93.14 160.393C99.3947 152.929 105.649 145.464 111.904 138H118.97C103.957 159.996 88.945 181.991 73.9328 203.986L70.6275 208.829C91.1523 228.742 119.145 241 150 241ZM153.948 140.57L153.736 138H174.492C181.634 151.259 188.776 164.518 195.919 177.777L195.967 177.866L196.014 177.954C202.749 190.455 209.483 202.957 216.217 215.458H160.103C159.927 213.316 159.752 211.174 159.575 209.032H140.426L140.158 212.289L139.898 215.458H83.7838C91.548 201.043 99.3131 186.629 107.078 172.215L107.1 172.175L107.121 172.135C113.251 160.757 119.38 149.379 125.509 138H146.264C146.149 139.404 146.034 140.809 145.918 142.213L145.912 142.286L145.736 144.426H154.265C154.159 143.141 154.053 141.855 153.948 140.57ZM148.989 154.048L144.944 154.048L144.732 156.641L144.728 156.688C144.311 161.765 143.894 166.841 143.476 171.918H156.525C156.159 167.482 155.795 163.046 155.431 158.611L155.056 154.048C153.033 154.048 151.011 154.048 148.989 154.048ZM142.095 188.72L142.086 188.833C141.796 192.358 141.506 195.884 141.217 199.409H158.783C158.294 193.453 157.805 187.496 157.315 181.54L150 181.54L142.685 181.54L142.095 188.72Z" fill="#274D89"/>
</g>
<path d="M43.4766 248.875H51.7266V276.672H60.2109V248.875H68.4375V276.672H76.8047V248.875H85.0078V283H43.4766V248.875Z" fill="#274D89"/>
<path d="M105.891 248.875V283H97.6641V248.875H105.891ZM116.156 248.875V255.227H87.6328V248.875H116.156Z" fill="#274D89"/>
<path d="M133.266 271.422H124.781V265.07H133.266C134.422 265.07 135.359 264.875 136.078 264.484C136.797 264.094 137.32 263.555 137.648 262.867C137.992 262.164 138.164 261.375 138.164 260.5C138.164 259.562 137.992 258.695 137.648 257.898C137.32 257.102 136.797 256.461 136.078 255.977C135.359 255.477 134.422 255.227 133.266 255.227H127.875V283H119.648V248.875H133.266C136 248.875 138.352 249.375 140.32 250.375C142.305 251.375 143.828 252.75 144.891 254.5C145.953 256.234 146.484 258.219 146.484 260.453C146.484 262.656 145.953 264.578 144.891 266.219C143.828 267.859 142.305 269.141 140.32 270.062C138.352 270.969 136 271.422 133.266 271.422Z" fill="#274D89"/>
<path d="M161.203 256.047L152.883 283H144.047L156.586 248.875H162.188L161.203 256.047ZM168.094 283L159.75 256.047L158.672 248.875H164.344L176.953 283H168.094ZM167.766 270.273V276.625H150.258V270.273H167.766Z" fill="#274D89"/>
<path d="M192.797 251.781H201.328C203.391 251.781 205.289 252.117 207.023 252.789C208.758 253.461 210.266 254.422 211.547 255.672C212.828 256.922 213.82 258.43 214.523 260.195C215.227 261.961 215.578 263.945 215.578 266.148C215.578 268.273 215.227 270.195 214.523 271.914C213.82 273.633 212.828 275.102 211.547 276.32C210.266 277.539 208.758 278.477 207.023 279.133C205.289 279.773 203.391 280.094 201.328 280.094H192.797C190.719 280.094 188.805 279.773 187.055 279.133C185.305 278.477 183.781 277.547 182.484 276.344C181.203 275.125 180.203 273.664 179.484 271.961C178.781 270.242 178.43 268.32 178.43 266.195C178.43 263.992 178.781 262.008 179.484 260.242C180.203 258.477 181.203 256.961 182.484 255.695C183.781 254.43 185.305 253.461 187.055 252.789C188.805 252.117 190.719 251.781 192.797 251.781ZM192.797 258.391C191.547 258.391 190.422 258.672 189.422 259.234C188.422 259.797 187.633 260.656 187.055 261.812C186.477 262.953 186.188 264.414 186.188 266.195C186.188 267.43 186.359 268.508 186.703 269.43C187.047 270.352 187.523 271.109 188.133 271.703C188.742 272.297 189.445 272.742 190.242 273.039C191.039 273.336 191.891 273.484 192.797 273.484H201.375C202.594 273.484 203.688 273.219 204.656 272.688C205.625 272.141 206.391 271.32 206.953 270.227C207.531 269.133 207.82 267.773 207.82 266.148C207.82 264.82 207.656 263.672 207.328 262.703C207 261.734 206.539 260.93 205.945 260.289C205.367 259.648 204.688 259.172 203.906 258.859C203.125 258.547 202.281 258.391 201.375 258.391H192.797ZM201 247.469V284.406H193.102V247.469H201Z" fill="#274D89"/>
<path d="M224.789 260.617H232.125C234.891 260.617 237.297 261.078 239.344 262C241.391 262.922 242.969 264.211 244.078 265.867C245.203 267.523 245.766 269.461 245.766 271.68C245.766 273.352 245.445 274.883 244.805 276.273C244.164 277.648 243.242 278.844 242.039 279.859C240.852 280.859 239.422 281.633 237.75 282.18C236.078 282.727 234.203 283 232.125 283H219.656V248.875H227.906V276.672H232.125C233.297 276.672 234.281 276.445 235.078 275.992C235.891 275.539 236.508 274.938 236.93 274.188C237.352 273.422 237.562 272.57 237.562 271.633C237.562 270.727 237.352 269.922 236.93 269.219C236.508 268.516 235.891 267.961 235.078 267.555C234.281 267.148 233.297 266.945 232.125 266.945H224.789V260.617ZM256.453 248.875V283H248.25V248.875H256.453Z" fill="#274D89"/>
<defs>
<filter id="filter0_d_2832_8028" x="32" y="13" width="236" height="236" filterUnits="userSpaceOnUse" color-interpolation-filters="sRGB">
<feFlood flood-opacity="0" result="BackgroundImageFix"/>
<feColorMatrix in="SourceAlpha" type="matrix" values="0 0 0 0 0 0 0 0 0 0 0 0 0 0 0 0 0 0 127 0" result="hardAlpha"/>
<feOffset dy="4"/>
<feGaussianBlur stdDeviation="2"/>
<feColorMatrix type="matrix" values="0 0 0 0 0 0 0 0 0 0 0 0 0 0 0 0 0 0 0.25 0"/>
<feBlend mode="normal" in2="BackgroundImageFix" result="effect1_dropShadow_2832_8028"/>
<feBlend mode="normal" in="SourceGraphic" in2="effect1_dropShadow_2832_8028" result="shape"/>
</filter>
</defs>
</svg>
