<svg width="245" height="40" viewBox="0 0 245 40" fill="none" xmlns="http://www.w3.org/2000/svg">
<g clip-path="url(#clip0_35_50)">
<path d="M78.1607 0.46875H84.656V39.8623H78.1607V0.46875Z" fill="#333333"/>
<path d="M84.7857 40H78.0311V0.337158H84.7857V40ZM78.2904 39.7371H84.5243V0.602199H78.2904V39.7371Z" fill="#333333"/>
<path d="M132.561 14.7386C134.597 16.8957 135.614 19.85 135.614 23.6016V39.8624H129.397V24.1083C129.397 21.8947 128.909 20.1879 127.933 18.9877C126.958 17.7876 125.542 17.1869 123.688 17.1855C121.651 17.1855 120.004 17.8513 118.747 19.1828C117.489 20.5144 116.862 22.2693 116.865 24.4476V39.8624H110.625V24.1083C110.625 21.8947 110.125 20.1879 109.127 18.9877C108.129 17.7876 106.704 17.1869 104.853 17.1855C102.816 17.1855 101.169 17.8513 99.9113 19.1828C98.6538 20.5144 98.0265 22.2693 98.0292 24.4476V39.8624H91.8163V12.0649H97.3663L97.4228 15.3281C99.3843 12.7837 102.085 11.5079 105.526 11.5009C107.355 11.4776 109.16 11.9232 110.773 12.7964C112.302 13.6168 113.565 14.8688 114.408 16.4009C116.591 13.1356 119.847 11.503 124.178 11.503C127.73 11.5016 130.524 12.5801 132.561 14.7386Z" fill="#333333"/>
<path d="M135.744 40.0001H129.261V24.1082C129.261 21.9391 128.776 20.2429 127.821 19.0703C126.865 17.8978 125.472 17.3189 123.68 17.3189C121.689 17.3189 120.06 17.9762 118.833 19.276C117.605 20.5758 116.982 22.3144 116.982 24.4475V40.0001H110.499V24.1082C110.499 21.9391 110.006 20.2429 109.035 19.0725C108.065 17.902 106.662 17.3189 104.853 17.3189C102.864 17.3189 101.233 17.9762 100.005 19.276C98.7779 20.5758 98.1547 22.3166 98.1547 24.4475V40.0001H91.672V11.9333H97.4814L97.5336 14.9633C99.4931 12.5779 102.176 11.3693 105.514 11.3693C107.367 11.3456 109.197 11.7963 110.834 12.6797C112.32 13.4805 113.561 14.6815 114.418 16.1506C116.618 12.9701 119.899 11.3693 124.178 11.3693C127.751 11.3693 130.602 12.4719 132.655 14.6452C134.705 16.8207 135.744 19.8336 135.744 23.6015V40.0001ZM129.527 39.7372H135.483V23.6015C135.483 19.9036 134.468 16.9521 132.467 14.8297C130.466 12.7072 127.676 11.6322 124.178 11.6322C119.914 11.6322 116.664 13.2606 114.516 16.4729L114.399 16.6489L114.295 16.4623C113.46 14.9547 112.216 13.7219 110.71 12.9108C109.115 12.0529 107.332 11.6154 105.526 11.6386C102.143 11.6386 99.4513 12.9108 97.5253 15.4149L97.2994 15.7096L97.2409 12.1962H91.9459V39.7372H97.9038V24.4475C97.9038 22.2445 98.55 20.4443 99.8256 19.0915C101.101 17.7388 102.797 17.0539 104.861 17.0539C106.743 17.0539 108.207 17.6752 109.234 18.9028C110.261 20.1305 110.765 21.8713 110.765 24.1082V39.7372H116.72V24.4475C116.72 22.2445 117.369 20.4443 118.644 19.0915C119.92 17.7388 121.616 17.0539 123.68 17.0539C125.562 17.0539 127.026 17.6752 128.025 18.9028C129.025 20.1305 129.527 21.8713 129.527 24.1082V39.7372Z" fill="#333333"/>
<path d="M142.442 0.46875H148.937V33.7346H169.421V39.8623H142.444L142.442 0.46875Z" fill="#333333"/>
<path d="M169.55 40H142.313V0.337158H149.067V33.6009H169.55V40ZM142.574 39.7371H169.289V33.8659H148.806V0.602199H142.572L142.574 39.7371Z" fill="#333333"/>
<path d="M173.361 6.80211C172.998 6.4502 172.713 6.02557 172.521 5.55534C172.33 5.0851 172.238 4.5796 172.25 4.07113C172.231 3.54535 172.32 3.02124 172.511 2.5321C172.702 2.04296 172.991 1.59949 173.361 1.22989C173.736 0.863948 174.18 0.578172 174.666 0.389505C175.153 0.200837 175.672 0.11312 176.192 0.131555C177.376 0.131555 178.347 0.497665 179.107 1.22989C179.484 1.5955 179.779 2.03761 179.975 2.52725C180.172 3.01689 180.263 3.54301 180.245 4.07113C180.256 4.58196 180.161 5.08943 179.964 5.56013C179.768 6.03083 179.476 6.45411 179.107 6.80211C178.349 7.53433 177.377 7.89973 176.192 7.89832C175.672 7.91715 175.153 7.82983 174.667 7.64152C174.18 7.45322 173.736 7.16777 173.361 6.80211ZM173.082 12.0648H179.3V39.8623H173.082V12.0648Z" fill="#333333"/>
<path d="M179.425 40H172.942V11.9332H179.425V40ZM173.206 39.7371H179.164V12.1961H173.212L173.206 39.7371ZM176.192 8.03181C175.654 8.05078 175.117 7.95996 174.615 7.76474C174.112 7.56951 173.652 7.27386 173.264 6.89531C172.89 6.53106 172.595 6.09191 172.397 5.60572C172.199 5.11952 172.102 4.59691 172.114 4.07104C172.095 3.52753 172.188 2.98597 172.386 2.48053C172.584 1.97508 172.883 1.51673 173.264 1.13438C173.653 0.756518 174.112 0.461447 174.615 0.266607C175.118 0.0717683 175.654 -0.0188851 176.192 5.19422e-06C177.405 5.19422e-06 178.415 0.381664 179.195 1.13438C179.584 1.51232 179.89 1.9692 180.094 2.47521C180.297 2.98122 180.393 3.52499 180.374 4.07104C180.385 4.59974 180.285 5.12473 180.082 5.61175C179.879 6.09876 179.577 6.53685 179.195 6.89743C178.415 7.65015 177.405 8.03181 176.192 8.03181ZM176.192 0.262926C175.689 0.245895 175.187 0.330895 174.717 0.512942C174.247 0.694989 173.817 0.970421 173.453 1.32309C173.095 1.68209 172.815 2.1125 172.631 2.58701C172.446 3.06152 172.361 3.56977 172.38 4.07952C172.369 4.5702 172.459 5.05785 172.643 5.51155C172.828 5.96524 173.104 6.37508 173.453 6.71509C173.816 7.06864 174.246 7.34465 174.716 7.52675C175.187 7.70886 175.689 7.79336 176.192 7.77525C177.235 7.81365 178.25 7.43258 179.017 6.71509C179.372 6.37842 179.653 5.96973 179.842 5.51564C180.031 5.06154 180.123 4.57221 180.113 4.07952C180.131 3.56948 180.042 3.06137 179.854 2.58827C179.665 2.11518 179.38 1.68771 179.017 1.33369C178.252 0.612344 177.236 0.227389 176.192 0.262926Z" fill="#333333"/>
<path d="M207.056 13.1058C208.833 14.1762 210.261 15.7516 211.163 17.637C212.125 19.5877 212.606 21.8762 212.606 24.5026V39.8622H206.389V24.897C206.389 22.4586 205.797 20.5637 204.614 19.2124C203.43 17.861 201.802 17.1853 199.729 17.1853C197.47 17.1853 195.619 17.9451 194.176 19.4647C192.733 20.9843 192.012 22.9067 192.012 25.232V39.8622H185.795V12.0647H191.345L191.401 15.7223C193.734 12.9093 196.898 11.5021 200.893 11.5007C203.226 11.5007 205.28 12.0358 207.056 13.1058Z" fill="#333333"/>
<path d="M212.736 40.0002H206.253V24.8971C206.253 22.5032 205.666 20.6204 204.509 19.2994C203.353 17.9784 201.744 17.319 199.722 17.319C197.512 17.319 195.676 18.0717 194.264 19.5581C192.853 21.0444 192.135 22.9506 192.135 25.2342V40.0002H185.653V11.9334H191.462L191.514 15.3747C193.854 12.7222 197.002 11.3694 200.893 11.3694C203.238 11.3694 205.333 11.9164 207.121 12.9914C208.918 14.0769 210.364 15.6709 211.28 17.5777C212.247 19.539 212.744 21.8693 212.744 24.5027L212.736 40.0002ZM206.519 39.7373H212.477V24.5027C212.477 21.9095 211.996 19.6259 211.046 17.6943C210.152 15.8342 208.742 14.2788 206.989 13.2183C205.241 12.1581 203.192 11.6323 200.893 11.6323C196.956 11.6323 193.796 13.0381 191.502 15.8072L191.276 16.0786L191.217 12.1963H185.925V39.7373H191.882V25.2321C191.882 22.8807 192.623 20.9109 194.082 19.3715C195.542 17.8321 197.445 17.0519 199.729 17.0519C201.82 17.0519 203.505 17.7495 204.71 19.1213C205.914 20.4932 206.519 22.4333 206.519 24.895V39.7373Z" fill="#333333"/>
<path d="M243.914 39.8623H235.81L224.819 27.592V39.8623H218.602V0.46875H224.819V23.7712L234.647 12.0648H242.253L230.752 25.4038L243.914 39.8623Z" fill="#333333"/>
<path d="M244.211 40H235.752L235.714 39.9576L224.948 27.9396V40H218.466V0.337158H224.948V23.4127L234.585 11.9332H242.531L230.929 25.4016L244.211 40ZM235.867 39.7371H243.625L230.593 25.4058L241.971 12.1962H234.712L224.698 24.1294V0.602199H218.74V39.7371H224.698V27.2569L235.867 39.7371Z" fill="#333333"/>
<path d="M22.2044 24.3838C21.6262 24.3854 21.0599 24.2175 20.5738 23.9001C20.0876 23.5828 19.7024 23.1297 19.4645 22.5953C19.2267 22.061 19.1464 21.4683 19.2333 20.8887C19.3201 20.3092 19.5705 19.7675 19.9542 19.3289L31.4726 6.05567C34.3417 2.75007 38.2 0.928711 42.3468 0.928711C46.4937 0.928711 50.3457 2.75007 53.2211 6.05567L62.8866 17.1938C63.4135 17.7991 63.6816 18.5919 63.632 19.3977C63.5824 20.2035 63.2191 20.9564 62.6221 21.4906C62.025 22.0248 61.2431 22.2967 60.4484 22.2464C59.6536 22.1961 58.9111 21.8277 58.3843 21.2224L48.7041 10.0737C46.9893 8.09754 44.7308 7.00981 42.3385 7.00981C39.9461 7.00981 37.6897 8.09754 35.9687 10.0737L24.4671 23.3448C24.1854 23.6723 23.8375 23.9345 23.4471 24.1138C23.0568 24.293 22.6329 24.3851 22.2044 24.3838Z" fill="#FFBA00"/>
<path d="M21.2801 39.0715C17.1416 39.0715 13.2812 37.2502 10.4058 33.9446L0.748652 22.8065C0.487762 22.5067 0.287656 22.1578 0.159758 21.7797C0.0318594 21.4015 -0.0213257 21.0015 0.00323879 20.6025C0.0528491 19.7967 0.416139 19.0439 1.01319 18.5096C1.61024 17.9754 2.39214 17.7035 3.18689 17.7538C3.98163 17.8041 4.72412 18.1725 5.25101 18.7778L14.9165 29.9159C16.6292 31.8921 18.8898 32.9798 21.2801 32.9798C23.6703 32.9798 25.9288 31.8921 27.6436 29.9159L39.1619 16.6448C39.6885 16.0394 40.4308 15.671 41.2253 15.6205C42.0199 15.57 42.8017 15.8416 43.3987 16.3755C43.9958 16.9095 44.3592 17.662 44.409 18.4676C44.4588 19.2733 44.1909 20.0659 43.6643 20.6713L32.146 33.9446C29.2768 37.2502 25.4186 39.0715 21.2801 39.0715Z" fill="#FFBA00"/>
</g>
<defs>
<clipPath id="clip0_35_50">
<rect width="244.211" height="40" fill="white"/>
</clipPath>
</defs>
</svg>
