<?xml version="1.0" encoding="UTF-8"?><svg id="Layer_1" xmlns="http://www.w3.org/2000/svg" xmlns:xlink="http://www.w3.org/1999/xlink" viewBox="0 0 1920 552"><defs><style>.cls-1{fill:url(#linear-gradient);}.cls-2{fill:#091f56;}</style><linearGradient id="linear-gradient" x1="358.55" y1="361.6" x2="669.61" y2="50.54" gradientTransform="matrix(1, 0, 0, 1, 0, 0)" gradientUnits="userSpaceOnUse"><stop offset="0" stop-color="#31e3ca"/><stop offset="1" stop-color="#3089fc"/></linearGradient></defs><g><g><g><polygon class="cls-2" points="115.21 206.49 53.61 124.88 31 124.88 31 296.93 50.49 296.93 50.49 154.51 115.21 236.38 178.88 154.51 178.88 296.93 198.37 296.93 198.37 124.88 175.76 124.88 115.21 206.49"/><path class="cls-2" d="M288.27,164.91c-7.97,0-14.86,1.35-20.66,4.03-5.81,2.69-10.62,5.94-14.43,9.75-3.81,3.81-6.71,7.58-8.71,11.3-1.99,3.73-3.33,6.72-4.03,8.97v-31.97h-19.49v129.95h19.49v-57.18c0-9.52,1.86-18.49,5.59-26.9,3.72-8.4,9.1-15.25,16.11-20.53,7.02-5.28,15.37-7.92,25.08-7.92h2.34v-19.49h-1.3Z"/></g><g><polygon class="cls-2" points="819.35 206.49 757.76 124.88 735.14 124.88 735.14 296.93 754.64 296.93 754.64 154.51 819.35 236.38 883.03 154.51 883.03 296.93 902.52 296.93 902.52 124.88 879.91 124.88 819.35 206.49"/><path class="cls-2" d="M1143,229.62c-6.59-2.6-13.56-4.63-20.92-6.11-7.36-1.47-14.34-3.03-20.92-4.68-6.59-1.64-11.95-3.85-16.11-6.63-4.16-2.77-6.24-6.76-6.24-11.95,0-12.47,10.31-18.71,30.93-18.71,10.91,0,18.75,1.99,23.52,5.98,4.76,3.99,7.49,8.75,8.19,14.3h19.75c-.69-6.41-2.9-12.39-6.63-17.93-3.73-5.54-9.19-10.09-16.37-13.65-7.19-3.55-16.5-5.33-27.94-5.33-16.81,0-29.5,3.25-38.08,9.75-8.58,6.5-12.86,15.64-12.86,27.42,0,7.97,2.08,14.25,6.24,18.84,4.16,4.59,9.53,8.15,16.11,10.66,6.58,2.51,13.55,4.55,20.92,6.11,7.36,1.56,14.34,3.16,20.92,4.81,6.58,1.65,11.95,3.94,16.11,6.88,4.16,2.95,6.24,7.11,6.24,12.48,0,4.33-1.21,7.88-3.64,10.66-2.43,2.77-5.42,4.85-8.96,6.24-3.55,1.39-7.24,2.34-11.04,2.86-3.82,.52-7.02,.78-9.62,.78-8.32,0-15.07-1.25-20.27-3.77-5.2-2.51-9.06-5.8-11.57-9.88-2.52-4.07-4.03-8.27-4.55-12.61h-20.27c.52,7.63,2.94,14.69,7.28,21.18,4.33,6.5,10.61,11.74,18.84,15.72,8.23,3.98,18.32,5.98,30.28,5.98,16.11,0,28.98-3.33,38.59-10.01,9.62-6.67,14.43-16.33,14.43-28.98,0-8.14-2.08-14.59-6.24-19.36-4.16-4.76-9.53-8.44-16.11-11.05Z"/><path class="cls-2" d="M1262.78,229.62c-6.59-2.6-13.56-4.63-20.92-6.11-7.36-1.47-14.34-3.03-20.92-4.68-6.59-1.64-11.95-3.85-16.11-6.63-4.16-2.77-6.24-6.76-6.24-11.95,0-12.47,10.31-18.71,30.93-18.71,10.91,0,18.75,1.99,23.52,5.98,4.76,3.99,7.49,8.75,8.19,14.3h19.75c-.69-6.41-2.9-12.39-6.63-17.93-3.73-5.54-9.19-10.09-16.37-13.65-7.19-3.55-16.5-5.33-27.94-5.33-16.81,0-29.5,3.25-38.08,9.75-8.58,6.5-12.86,15.64-12.86,27.42,0,7.97,2.08,14.25,6.24,18.84,4.16,4.59,9.53,8.15,16.11,10.66,6.58,2.51,13.55,4.55,20.92,6.11,7.36,1.56,14.34,3.16,20.92,4.81,6.58,1.65,11.95,3.94,16.11,6.88,4.16,2.95,6.24,7.11,6.24,12.48,0,4.33-1.21,7.88-3.64,10.66-2.43,2.77-5.42,4.85-8.96,6.24-3.55,1.39-7.24,2.34-11.04,2.86-3.82,.52-7.02,.78-9.62,.78-8.32,0-15.07-1.25-20.27-3.77-5.2-2.51-9.06-5.8-11.57-9.88-2.52-4.07-4.03-8.27-4.55-12.61h-20.27c.52,7.63,2.94,14.69,7.28,21.18,4.33,6.5,10.61,11.74,18.84,15.72,8.23,3.98,18.32,5.98,30.28,5.98,16.11,0,28.98-3.33,38.59-10.01,9.62-6.67,14.43-16.33,14.43-28.98,0-8.14-2.08-14.59-6.24-19.36-4.16-4.76-9.53-8.44-16.11-11.05Z"/><path class="cls-2" d="M1405.95,188.04c-4.85-7.1-11.13-12.73-18.84-16.89-7.71-4.16-16.94-6.24-27.68-6.24-12.65,0-23.7,2.99-33.14,8.96-9.44,5.98-16.76,14.03-21.96,24.17-5.2,10.14-7.8,21.44-7.8,33.92s2.6,23.57,7.8,33.79c5.2,10.23,12.51,18.33,21.96,24.3,9.44,5.98,20.49,8.97,33.14,8.97,10.74,0,19.97-2.08,27.68-6.24,7.71-4.16,13.99-9.7,18.84-16.63v20.79h19.49V166.99h-19.49v21.05Zm-4.16,68.48c-3.47,7.54-8.54,13.56-15.2,18.06-6.67,4.51-14.86,6.76-24.56,6.76s-17.76-2.25-24.69-6.76c-6.93-4.5-12.21-10.52-15.85-18.06-3.64-7.54-5.46-15.73-5.46-24.56s1.82-17.24,5.46-24.69c3.64-7.44,8.92-13.42,15.85-17.93,6.93-4.5,15.16-6.76,24.69-6.76s17.89,2.25,24.56,6.76c6.67,4.51,11.74,10.49,15.2,17.93,3.47,7.45,5.2,15.69,5.2,24.69s-1.73,17.02-5.2,24.56Z"/><path class="cls-2" d="M1547.3,187.78c-4.85-7.1-11.13-12.69-18.84-16.77-7.71-4.07-16.94-6.11-27.68-6.11-12.65,0-23.7,2.9-33.14,8.71-9.44,5.81-16.76,13.69-21.96,23.65-5.2,9.96-7.8,21.18-7.8,33.66s2.6,23.48,7.8,33.53c5.2,10.05,12.51,17.98,21.96,23.78,9.44,5.81,20.49,8.71,33.14,8.71,10.74,0,19.97-2.12,27.68-6.37,7.71-4.24,13.99-9.83,18.84-16.76v17.93c0,13.34-3.42,23.52-10.26,30.54-6.85,7.02-17.72,10.52-32.62,10.52-9.87,0-18.02-1.78-24.43-5.33-6.41-3.55-10.92-8.54-13.51-14.94h-21.57c3.64,11.26,10.57,20.4,20.79,27.42,10.22,7.02,23.48,10.52,39.76,10.52,19.58,0,34.7-4.94,45.35-14.81,10.66-9.88,15.98-24.09,15.98-42.62v-126.05h-19.49v20.79Zm-4.29,67.44c-3.55,7.37-8.66,13.22-15.33,17.54-6.67,4.33-14.77,6.5-24.3,6.5s-17.76-2.17-24.69-6.5c-6.93-4.33-12.21-10.18-15.85-17.54-3.64-7.36-5.46-15.46-5.46-24.3s1.82-17.15,5.46-24.43c3.64-7.28,8.92-13.08,15.85-17.41,6.93-4.33,15.16-6.5,24.69-6.5s17.63,2.17,24.3,6.5c6.67,4.33,11.78,10.14,15.33,17.41,3.55,7.28,5.33,15.42,5.33,24.43s-1.78,16.94-5.33,24.3Z"/><rect class="cls-2" x="1590.21" y="166.99" width="19.49" height="129.95"/><path class="cls-2" d="M1721.09,171.27c-7.88-4.24-16.33-6.37-25.34-6.37-10.57,0-19.24,2.17-25.99,6.5-6.76,4.33-12.47,9.62-17.15,15.85v-20.27h-19.49v129.95h19.49v-74.85c0-7.8,1.77-14.69,5.33-20.66,3.55-5.98,8.27-10.61,14.16-13.9,5.89-3.29,12.48-4.94,19.76-4.94,10.74,0,19.49,3.6,26.25,10.79,6.76,7.19,10.14,16.68,10.14,28.46v75.11h19.49v-75.63c0-12.3-2.47-22.65-7.41-31.05-4.94-8.4-11.35-14.73-19.23-18.97Z"/><path class="cls-2" d="M1869.51,166.99v20.79c-4.85-7.1-11.13-12.69-18.84-16.77-7.71-4.07-16.94-6.11-27.68-6.11-12.65,0-23.7,2.9-33.14,8.71-9.44,5.81-16.76,13.69-21.96,23.65-5.2,9.96-7.8,21.18-7.8,33.66s2.6,23.48,7.8,33.53c5.2,10.05,12.51,17.98,21.96,23.78,9.44,5.81,20.49,8.71,33.14,8.71,10.74,0,19.97-2.12,27.68-6.37,7.71-4.24,13.99-9.83,18.84-16.76v17.93c0,13.34-3.42,23.52-10.26,30.54-6.85,7.02-17.72,10.52-32.62,10.52-9.87,0-18.02-1.78-24.43-5.33-6.41-3.55-10.92-8.54-13.51-14.94h-21.57c3.64,11.26,10.57,20.4,20.79,27.42,10.22,7.02,23.48,10.52,39.76,10.52,19.58,0,34.7-4.94,45.35-14.81,10.66-9.88,15.98-24.09,15.98-42.62v-126.05h-19.49Zm-4.29,88.23c-3.55,7.37-8.66,13.22-15.33,17.54-6.67,4.33-14.77,6.5-24.3,6.5s-17.76-2.17-24.69-6.5c-6.93-4.33-12.21-10.18-15.85-17.54-3.64-7.36-5.46-15.46-5.46-24.3s1.82-17.15,5.46-24.43c3.64-7.28,8.92-13.08,15.85-17.41,6.93-4.33,15.16-6.5,24.69-6.5s17.63,2.17,24.3,6.5c6.67,4.33,11.78,10.14,15.33,17.41,3.55,7.28,5.33,15.42,5.33,24.43s-1.78,16.94-5.33,24.3Z"/><path class="cls-2" d="M1036.1,198.05c-5.2-10.13-12.6-18.19-22.22-24.17-9.61-5.98-21.09-8.96-34.43-8.96s-24.6,2.99-34.3,8.96c-9.7,5.98-17.15,14.03-22.35,24.17-3.71,7.23-6.08,15.05-7.15,23.47-.43,3.39-.65,6.87-.65,10.44,0,2.74,.14,5.43,.4,8.07,.9,9.2,3.36,17.77,7.4,25.71,5.2,10.22,12.64,18.32,22.35,24.3,9.7,5.98,21.13,8.96,34.3,8.96s24.82-2.99,34.43-8.96c9.61-5.98,17.02-14.07,22.22-24.3,1.6-3.15,2.95-6.4,4.06-9.74h-20.72c-.08,.17-.15,.35-.23,.52-3.47,7.54-8.53,13.56-15.2,18.06-6.67,4.51-14.86,6.76-24.56,6.76s-17.67-2.25-24.43-6.76c-6.76-4.5-11.87-10.52-15.33-18.06-2.39-5.19-3.95-10.68-4.69-16.48h108.5c.26-2.64,.4-5.33,.4-8.07,0-3.58-.22-7.06-.65-10.44-1.06-8.42-3.44-16.24-7.15-23.47Zm-100.76,23.47c.83-5.03,2.28-9.77,4.36-14.24,3.46-7.45,8.57-13.42,15.33-17.93,6.76-4.5,14.9-6.76,24.43-6.76s17.88,2.25,24.56,6.76c6.67,4.51,11.73,10.48,15.2,17.93,2.08,4.47,3.53,9.22,4.36,14.24h-88.23Z"/><circle class="cls-2" cx="1599.95" cy="137.62" r="12.69" transform="translate(371.3 1171.65) rotate(-45)"/></g></g><g><g><circle class="cls-2" cx="450.94" cy="181.48" r="34.93"/><circle class="cls-2" cx="567.37" cy="181.48" r="34.93"/></g><path class="cls-1" d="M509.15,27.26c-101.31,0-183.74,82.42-183.74,183.74,0,84.27,57.03,155.47,134.52,177.04,15.67,4.36,32.18,6.7,49.22,6.7,101.31,0,183.74-82.42,183.74-183.74S610.46,27.26,509.15,27.26Zm0,357.96v-31.29c-78.82,0-142.94-64.12-142.94-142.94s64.12-142.94,142.94-142.94,142.94,64.12,142.94,142.94c0,86.08-61.54,158.05-142.94,174.23Z"/></g></g><g><path class="cls-2" d="M938.05,379.18h9.02l21.45,64.32h-5.88l-5.75-17.34h-28.71l-5.75,17.34h-5.88l21.5-64.32Zm-8.14,41.76h25.26l-9.29-27.91-3.36-10h-.04l-3.27,10-9.29,27.91Z"/><path class="cls-2" d="M992.62,379.18h17.3c11.94,0,18.84,6.37,18.84,16.23,0,8.32-2.65,16.5-12.78,19.33,1.33,.18,2.21,1.24,2.92,2.43l16.06,26.32h-6.64l-16.54-27.6h-13.62v27.6h-5.53v-64.32Zm5.53,5.22v26.28h12.96c8.62,0,11.9-7.65,11.9-14.42s-3.72-11.86-11.72-11.86h-13.14Z"/><path class="cls-2" d="M1040.39,419.08c0-15.39,9.33-24.77,20.61-24.77,12.25,0,20.48,9.38,20.48,24.77,0,16.28-9.6,25.08-20.66,25.08-11.86,0-20.44-8.8-20.44-25.08Zm35.52,0c0-12.52-5.57-19.64-15.08-19.64s-14.86,7.39-14.86,19.64,5.71,19.95,15.04,19.95,14.91-7.34,14.91-19.95Z"/><path class="cls-2" d="M1092.98,429.66v-34.42h5.31v32.65c0,7.92,2.65,11.32,8.67,11.37,6.64,0,10.4-2.83,14.77-11.06v-32.96h5.31v48.26h-4.64l-.44-10.53c-2.3,7.03-8.09,11.5-15.31,11.5-8.32,0-13.67-5.75-13.67-14.82Z"/><path class="cls-2" d="M1144.56,433.02v-28.4c0-1.9,.8-3.8,2.26-4.29h-10.13v-5.13h7.87l1.46-14.24h3.85v14.24h13.58v5.13h-13.58v33.04c0,4.47,2.12,5.44,6.41,5.44,3.89,0,5.17-.09,8.4-.58v5.13c-3.23,.58-6.5,.66-9.55,.66-7.43,0-10.57-3.89-10.57-11.01Z"/><path class="cls-2" d="M1170.39,419.04c0-15.39,8.94-24.77,21.19-24.77s19.29,9.38,19.24,22.43c0,1.73-.18,3.23-.22,3.94h-34.86c.35,11.46,6.41,18.45,16.19,18.45,7.48,0,11.63-2.79,12.61-9.29h5.4c-.4,9.25-8.09,14.38-18.4,14.38-12.03,0-21.14-8.89-21.14-25.12Zm34.99-3.19c0-10.13-5.26-16.5-14.11-16.5-9.78,0-15.26,7.17-15.53,19.24,.4-2.3,1.9-2.74,3.94-2.74h25.7Z"/><path class="cls-2" d="M1237.26,379.18h9.95l14.46,39.1,4.64,16.81h.13l4.56-16.81,14.2-39.1h9.95v64.32h-5.53v-37.56l.44-23.22h-.31l-8.23,22.6-12.83,38.17h-4.42l-13.36-38.17-8.27-22.6h-.31l.44,23.22v37.56h-5.53v-64.32Z"/><path class="cls-2" d="M1306.49,419.08c0-15.39,9.33-24.77,20.61-24.77,12.25,0,20.48,9.38,20.48,24.77,0,16.28-9.6,25.08-20.66,25.08-11.86,0-20.44-8.8-20.44-25.08Zm35.52,0c0-12.52-5.57-19.64-15.08-19.64s-14.86,7.39-14.86,19.64,5.71,19.95,15.04,19.95,14.91-7.34,14.91-19.95Z"/><path class="cls-2" d="M1359.56,374.67h5.31v30.43c.75-4.51,5.62-10.84,14.86-10.84s17.56,7.92,17.56,24.51-10.26,25.21-19.42,25.21c-7.34,0-11.59-4.78-13.05-8.05l-.27,7.56h-4.95l-.04-68.83Zm17.21,64.19c9.07,0,14.95-7.52,14.95-20.3s-5.49-19.15-13.18-19.15-12.21,4.6-13.62,8.8l-.04-.09,.04,24.02c.49,1.28,6.06,6.72,11.85,6.72Z"/><path class="cls-2" d="M1407.95,383.12c0-2.65,1.99-4.56,4.42-4.56s4.38,1.9,4.38,4.56-1.99,4.6-4.38,4.6-4.42-1.9-4.42-4.6Zm1.73,12.87h5.35v47.51h-5.35v-47.51Z"/><path class="cls-2" d="M1430.95,374.72h5.35v68.79h-5.35v-68.79Z"/><path class="cls-2" d="M1448.25,419.04c0-15.39,8.94-24.77,21.19-24.77s19.29,9.38,19.24,22.43c0,1.73-.18,3.23-.22,3.94h-34.86c.35,11.46,6.41,18.45,16.19,18.45,7.48,0,11.63-2.79,12.61-9.29h5.4c-.4,9.25-8.09,14.38-18.4,14.38-12.03,0-21.14-8.89-21.14-25.12Zm34.99-3.19c0-10.13-5.26-16.5-14.11-16.5-9.78,0-15.26,7.17-15.53,19.24,.4-2.3,1.9-2.74,3.94-2.74h25.7Z"/><path class="cls-2" d="M1510.92,411.17c0-19.77,11.28-33.18,29.02-33.18,13.58,0,23.18,8.58,23.62,21.76h-5.66c-.35-9.78-7.92-16.63-18.18-16.63-14.38,0-23.05,10.93-23.05,27.96,0,18.27,9.55,28.22,23.09,28.22,9.6,0,17.92-7.25,18.22-15.7h5.53c-.93,12.52-10.71,20.83-23.67,20.83-17.3,0-28.93-12.87-28.93-33.26Z"/><path class="cls-2" d="M1571.42,419.08c0-15.39,9.33-24.77,20.61-24.77,12.25,0,20.48,9.38,20.48,24.77,0,16.28-9.6,25.08-20.66,25.08-11.86,0-20.44-8.8-20.44-25.08Zm35.52,0c0-12.52-5.57-19.64-15.08-19.64s-14.86,7.39-14.86,19.64,5.71,19.95,15.04,19.95,14.91-7.34,14.91-19.95Z"/><path class="cls-2" d="M1624.46,395.2h4.42l.35,11.46c2.03-7.79,7.92-12.43,16.32-12.43,7.56,0,11.94,3.8,13.31,11.94,2.17-7.3,8.05-11.94,15.97-11.94,8.8,0,14.02,5.62,14.02,15.08v34.19h-5.31v-32.65c0-8.05-2.79-11.41-9.55-11.41-6.37,0-10.35,2.96-14.73,11.19v32.87h-5.31v-32.6c0-8.14-2.7-11.46-9.51-11.46-6.46,0-10.4,3.01-14.69,11.19v32.87h-5.31v-48.3Z"/><path class="cls-2" d="M1704.38,395.24h5.31v9.91c.71-4.51,5.57-10.88,14.46-10.88,9.91,0,17.96,7.96,17.96,23.89,0,18.05-10.31,25.83-19.64,25.83-8.4,0-12.78-6.28-13.27-9.07l.53,8.58,.04,17.83h-5.4v-66.09Zm5.31,13.27v23.67c1.28,2.04,6.06,6.64,12.56,6.64,8.27,0,14.29-7.48,14.29-20.79s-5.49-18.62-13.4-18.62c-7.03,0-11.99,4.6-13.45,9.11Z"/><path class="cls-2" d="M1753.08,430.36c0-6.81,4.82-11.41,13.45-13.27,5-1.06,11.24-1.42,17.21-1.64v-3.72c0-9.51-4.42-12.25-11.9-12.25-6.77,0-13.01,2.17-12.47,12.34h-5.49c-1.11-10.88,6.55-17.52,18.22-17.52,8.49,0,16.85,3.85,16.85,16.32v32.87h-5.22v-10.04c-2.21,6.9-8.85,10.57-16.15,10.57-9.82,0-14.51-6.02-14.51-13.67Zm30.65-1.19v-10c-5.13,.26-11.19,.75-15.7,1.99-5.88,1.59-9.2,4.47-9.2,9.02s1.99,9.25,9.51,9.29c9.55,.04,14.33-6.81,15.39-10.31Z"/><path class="cls-2" d="M1804.43,395.2h4.47l.31,11.46c2.12-7.79,8.18-12.43,16.59-12.43s13.98,5.44,13.98,15.08v34.19h-5.31v-32.69c0-8.18-2.96-11.37-9.91-11.37-6.46,0-10.62,3.1-14.82,11.15v32.91h-5.31v-48.3Z"/><path class="cls-2" d="M1850.74,457.35h3.58c6.41,0,7.65-3.54,9.2-8.23,1.24-3.8,1.46-5.04,2.7-5.62h-1.86l-16.99-48.26h5.97l7.25,21.9,6.64,20.48h.22l6.77-20.48,7.48-21.9h5.97l-17.38,48.26c-4.16,11.59-4.38,19.07-15.97,19.07h-3.58v-5.22Z"/></g></svg>