<svg width="73" height="31" viewBox="0 0 73 31" fill="none" xmlns="http://www.w3.org/2000/svg">
<path d="M2.08789 2.81676C2.08565 2.80661 2.08726 2.79599 2.09241 2.78698C2.09757 2.77798 2.10589 2.77125 2.11573 2.76812C2.12557 2.76499 2.13623 2.76569 2.14558 2.77008C2.15494 2.77447 2.16232 2.78223 2.16627 2.79183L8.34139 12.9231H11.1051V0.0461426H9.04264V10.1026C9.03993 10.1109 9.03468 10.1181 9.02764 10.1233C9.02061 10.1284 9.01214 10.1312 9.00345 10.1312C8.99477 10.1312 8.9863 10.1284 8.97926 10.1233C8.97223 10.1181 8.96698 10.1109 8.96426 10.1026L2.78502 0.0461426H0.0253906V12.9231H2.08789V2.81676Z" fill="#060543"/>
<path d="M47.0506 0.0461426H15.2881V1.84891H47.0506V0.0461426Z" fill="#060543"/>
<path d="M47.0506 11.1204H15.2881V12.9231H47.0506V11.1204Z" fill="#060543"/>
<path d="M47.0506 5.58325H15.2881V7.38602H47.0506V5.58325Z" fill="#060543"/>
<path d="M61.2858 0.0461426H59.0294L56.0759 4.9186L53.1183 0.0461426H50.7918L54.7642 6.24783L50.5195 12.9231H52.7594L55.9852 7.65599L59.1903 12.9231H61.5952L57.2887 6.28106L61.2858 0.0461426Z" fill="#060543"/>
<path d="M62.9766 0.0461426V1.85306H66.7386V12.9231H68.8258V1.85306H72.5878V0.0461426H62.9766Z" fill="#060543"/>
<path d="M6.69139 27.312C6.68777 27.3199 6.68196 27.3267 6.67465 27.3314C6.66734 27.3361 6.65883 27.3386 6.65014 27.3386C6.64145 27.3386 6.63295 27.3361 6.62563 27.3314C6.61832 27.3267 6.61251 27.3199 6.60889 27.312L3.13977 17.0769H0.0253906V29.9538H2.05077V19.4571C2.05077 19.446 2.05511 19.4355 2.06285 19.4277C2.07058 19.4199 2.08107 19.4155 2.09201 19.4155C2.10296 19.4155 2.11345 19.4199 2.12118 19.4277C2.12892 19.4355 2.13327 19.446 2.13327 19.4571L5.72202 29.9663H7.57827L11.1629 19.4446C11.1658 19.4353 11.1715 19.4272 11.1793 19.4214C11.1871 19.4156 11.1965 19.4125 11.2062 19.4125C11.2159 19.4125 11.2253 19.4156 11.2331 19.4214C11.2409 19.4272 11.2466 19.4353 11.2495 19.4446V29.9538H13.2749V17.0769H10.1605L6.69139 27.312Z" fill="#060543"/>
<path d="M48.7291 17.0769H46.6377V29.9538H48.7291V17.0769Z" fill="#060543"/>
<path d="M55.3297 17.0769H53.2383V29.9538H60.7417V28.1469H55.3297V17.0769Z" fill="#060543"/>
<path d="M65.2291 24.18H70.4885V22.3606H65.2291V18.8547H70.5421V17.0769H63.1377V29.9538H70.5998V28.1677H65.2291V24.18Z" fill="#060543"/>
<path d="M41.024 23.262C41.013 23.262 41.0025 23.2576 40.9948 23.2498C40.9871 23.242 40.9827 23.2315 40.9827 23.2204C40.9827 23.2094 40.9871 23.1989 40.9948 23.1911C41.0025 23.1833 41.013 23.1789 41.024 23.1789C41.4892 22.9401 41.8815 22.5788 42.159 22.1333C42.4364 21.6878 42.5888 21.1749 42.5997 20.6492C42.5997 18.3438 40.9992 17.0769 38.8872 17.0769H33.8506V29.9538H39.3781C39.8741 29.979 40.37 29.8999 40.834 29.7215C41.298 29.5431 41.72 29.2693 42.0731 28.9176C42.4262 28.5659 42.7028 28.144 42.885 27.6788C43.0673 27.2135 43.1514 26.7151 43.1318 26.2154C43.1099 25.5684 42.8979 24.9424 42.5227 24.4167C42.1475 23.891 41.626 23.4892 41.024 23.262ZM35.942 18.8797H38.6438C38.8834 18.8609 39.1241 18.8931 39.3505 18.9742C39.5768 19.0553 39.7837 19.1835 39.9576 19.3504C40.1315 19.5173 40.2686 19.7192 40.3599 19.943C40.4513 20.1668 40.4948 20.4074 40.4877 20.6492C40.4977 20.8993 40.4574 21.1488 40.3693 21.3827C40.2811 21.6167 40.1468 21.8303 39.9746 22.0108C39.8024 22.1912 39.5957 22.3347 39.367 22.4326C39.1383 22.5306 38.8924 22.581 38.6438 22.5807H35.942V18.8797ZM39.1553 28.1511H35.942V24.2381H39.1553C39.6706 24.2381 40.1648 24.4443 40.5292 24.8112C40.8935 25.1781 41.0982 25.6757 41.0982 26.1946C41.0982 26.7135 40.8935 27.2111 40.5292 27.578C40.1648 27.9449 39.6706 28.1511 39.1553 28.1511Z" fill="#060543"/>
<path d="M23.5631 16.7737C19.5536 16.7737 16.7568 19.5111 16.7568 23.5154C16.7568 27.5197 19.5536 30.2571 23.5631 30.2571C27.5066 30.2571 30.3693 27.4532 30.3693 23.5154C30.3693 19.5775 27.5066 16.7737 23.5631 16.7737ZM23.5631 28.4045C20.7003 28.4045 18.8812 26.3566 18.8812 23.5071C18.8812 20.6575 20.7003 18.6097 23.5631 18.6097C26.4258 18.6097 28.245 20.6575 28.245 23.5071C28.245 26.3566 26.4258 28.4128 23.5631 28.4128V28.4045Z" fill="#060543"/>
</svg>
