<svg version="1.1" id="Layer_1" xmlns="http://www.w3.org/2000/svg" xmlns:xlink="http://www.w3.org/1999/xlink" x="0px" y="0px" viewBox="-181.9 34.3 281.8 43.4" style="enable-background:new -181.9 34.3 281.8 43.4;" xml:space="preserve">
 <style type="text/css">
  .st0{fill:#21A038;}
	.st1{fill:url(#SVGID_1_);}
	.st2{fill:url(#SVGID_2_);}
	.st3{fill:url(#SVGID_3_);}
	.st4{fill:url(#SVGID_4_);}
	.st5{fill:url(#SVGID_5_);}
	.st6{fill:url(#SVGID_6_);}
 </style>
 <title>
  Sberbank
 </title>
 <g id="Page-1">
  <g id="SB_ENG_RGB">
   <path id="Path" class="st0" d="M-114.1,53.8c-3-0.7-5.6-1.3-5.6-3.5c0-2.8,3.5-3.1,5-3.1c1.7-0.1,3.3,0.3,4.8,1l4.2-3.1
			c-2.7-1.6-5.8-2.5-8.9-2.6c-7.9,0-10.7,4.2-10.7,8.1c0,5.6,4.9,6.8,9.2,7.8c3,0.7,5.6,1.4,5.6,3.5c0,1.1-0.6,3-5,3
			c-3,0-5.9-1-8.4-2.7l-1.9,4.4c2.3,1.8,6.3,3,10.3,3c6.5,0,10.7-3.2,10.7-8C-104.9,56-109.8,54.8-114.1,53.8z">
   </path>
   <path id="Shape" class="st0" d="M-81,55.7l-0.3-0.1l0.3-0.1c2.1-1.1,3.4-3.3,3.3-5.7c0-4.2-3.6-6.7-9.6-6.7h-12.4v26.1h13.1
			c6.5,0,10.1-2.5,10.1-7.1C-76.4,59-78.1,56.7-81,55.7z M-94,47.4h6c3.8,0,4.6,1.8,4.6,3.2c0,2.1-1.6,3.2-4.6,3.2h-6V47.4z
			 M-94,53.8h6 M-87,64.8h-7v-6.7h7c3.2,0,4.8,1.1,4.8,3.3C-82.1,63.7-83.7,64.8-87,64.8z">
   </path>
   <polygon id="Path_1_" class="st0" points="-57.3,47.4 -51.4,43 -71.2,43 -71.2,69.2 -51.4,69.2 -51.4,64.8 -65.5,64.8 -65.5,58.1 
			-53.5,58.1 -53.5,53.8 -65.5,53.8 -65.5,47.4 		">
   </polygon>
   <path id="Shape_1_" class="st0" d="M-23.9,69.2l-5.7-8.5c3.4-1.5,5.3-4.4,5.3-8.3c0-5.8-4.3-9.4-11.1-9.4h-10.8v26.1h5.6v-7.4h5.6
			l5,7.4L-23.9,69.2z M-40.5,47.4h5c3.6,0,5.6,1.8,5.6,5c0,3.2-2,5-5.6,5h-5V47.4z">
   </path>
   <path id="Shape_2_" class="st0" d="M35.1,69.2H41L30,43h-5.8L12.9,69.2h5.7l2.3-5.3h12L35.1,69.2z M22.6,59.5L27,49l4.1,10.5H22.6
			z M80.5,58.6H84l8.6,10.5h7.3L88.3,55.6L98.4,43H92l-8.4,11.2h-3.1V43h-5.6v26.1h5.6V58.6L80.5,58.6z M6,55.6l0.3-0.1
			c2.1-1.1,3.4-3.3,3.3-5.7c0-4.2-3.6-6.7-9.6-6.7h-12.4v26.1H0.8c6.5,0,10.1-2.5,10.1-7.1c0-3.1-1.7-5.4-4.6-6.4L6,55.6z
			 M-0.7,47.4c3.8,0,4.6,1.8,4.6,3.2c0,2.1-1.6,3.2-4.6,3.2h-6v-6.4L-0.7,47.4L-0.7,47.4z M-6.7,64.8v-6.7h7c3.2,0,4.8,1.1,4.8,3.3
			c0,2.2-1.6,3.3-4.8,3.3H-6.7z M63,43v17.2L49.9,43h-5.3v26.1H50V52l13,17.1h5.3V43H63z">
   </path>
   <g id="Group">
    <path id="Path_2_" class="st0" d="M-143,42.8c1,1.3,1.9,2.8,2.6,4.3l-19.8,14.6l-8.3-5.2v-6.2l8.3,5.2L-143,42.8z">
    </path>
    <g id="Path_3_">
     <linearGradient id="SVGID_1_" gradientUnits="userSpaceOnUse" x1="-52.9562" y1="101.8041" x2="-53.5089" y2="104.448" gradientTransform="matrix(3.6206 0 0 -5.9927 15.8173 680.8324)">
      <stop offset="0.1444" style="stop-color:#F2E913">
      </stop>
      <stop offset="0.3037" style="stop-color:#E7E518">
      </stop>
      <stop offset="0.5823" style="stop-color:#CADB26">
      </stop>
      <stop offset="0.891" style="stop-color:#A3CD39">
      </stop>
     </linearGradient>
     <path class="st1" d="M-176.9,56.1c0-0.3,0-0.6,0-0.9l-5-0.3c0,0.3,0,0.7,0,1.1c0,6,2.4,11.4,6.4,15.4l3.6-3.6
					C-175,64.8-176.9,60.7-176.9,56.1z">
     </path>
     <linearGradient id="SVGID_2_" gradientUnits="userSpaceOnUse" x1="-34.4472" y1="101.4488" x2="-32.0914" y2="101.9912" gradientTransform="matrix(5.9927 0 0 -3.6206 32.3753 407.6483)">
      <stop offset="5.920000e-02" style="stop-color:#0FA8E0">
      </stop>
      <stop offset="0.5385" style="stop-color:#0099F9">
      </stop>
      <stop offset="0.9234" style="stop-color:#0291EB">
      </stop>
     </linearGradient>
     <path class="st2" d="M-160.2,39.4c0.3,0,0.6,0,0.9,0l0.3-5c-0.3,0-0.7,0-1.1,0c-6,0-11.4,2.4-15.4,6.4l3.6,3.6
					C-169,41.3-164.8,39.4-160.2,39.4z">
     </path>
     <linearGradient id="SVGID_3_" gradientUnits="userSpaceOnUse" x1="-33.2391" y1="95.6798" x2="-30.5751" y2="96.0436" gradientTransform="matrix(5.9927 0 0 -3.6206 37.5565 419.8523)">
      <stop offset="0.1226" style="stop-color:#A3CD39">
      </stop>
      <stop offset="0.2846" style="stop-color:#86C339">
      </stop>
      <stop offset="0.8693" style="stop-color:#21A038">
      </stop>
     </linearGradient>
     <path class="st3" d="M-160.2,72.8c-0.3,0-0.6,0-0.9,0l-0.3,5c0.3,0,0.7,0,1.1,0c6,0,11.4-2.4,15.4-6.4l-3.6-3.6
					C-151.4,70.9-155.6,72.8-160.2,72.8z">
     </path>
    </g>
    <g id="Path_4_">
     <linearGradient id="SVGID_4_" gradientUnits="userSpaceOnUse" x1="-38.8003" y1="99.7632" x2="-36.0585" y2="99.2699" gradientTransform="matrix(4.9783 0 0 -2.9027 31.8759 327.2303)">
      <stop offset="5.660000e-02" style="stop-color:#0291EB">
      </stop>
      <stop offset="0.79" style="stop-color:#0C8ACB">
      </stop>
     </linearGradient>
     <path class="st4" d="M-150.8,42.3l4.2-3.1c-3.7-3-8.5-4.8-13.6-4.8l0,0v5C-156.7,39.4-153.5,40.4-150.8,42.3z">
     </path>
     <path class="st0" d="M-138.5,56.1c0-1.3-0.1-2.6-0.3-3.9l-4.7,3.5c0,0.1,0,0.3,0,0.4c0,4.9-2.1,9.3-5.5,12.4l3.4,3.7
					C-141.3,68.2-138.5,62.4-138.5,56.1z">
     </path>
     <linearGradient id="SVGID_5_" gradientUnits="userSpaceOnUse" x1="-35.1619" y1="97.1171" x2="-32.6299" y2="96.4981" gradientTransform="matrix(5.8679 0 0 -3.8391 31.3453 444.1041)">
      <stop offset="0.1324" style="stop-color:#F2E913">
      </stop>
      <stop offset="0.2977" style="stop-color:#EBE716">
      </stop>
      <stop offset="0.5306" style="stop-color:#D9E01F">
      </stop>
      <stop offset="0.8023" style="stop-color:#BBD62D">
      </stop>
      <stop offset="0.9829" style="stop-color:#A3CD39">
      </stop>
     </linearGradient>
     <path class="st5" d="M-160.2,72.8c-4.9,0-9.3-2.1-12.4-5.5l-3.7,3.4c4,4.4,9.7,7.1,16.1,7.1V72.8L-160.2,72.8z">
     </path>
     <linearGradient id="SVGID_6_" gradientUnits="userSpaceOnUse" x1="-50.8063" y1="103.0418" x2="-50.1413" y2="105.6858" gradientTransform="matrix(3.8391 0 0 -5.8679 17.1282 661.3873)">
      <stop offset="6.980000e-02" style="stop-color:#A3CD39">
      </stop>
      <stop offset="0.2599" style="stop-color:#81C55F">
      </stop>
      <stop offset="0.9216" style="stop-color:#0FA8E0">
      </stop>
     </linearGradient>
     <path class="st6" d="M-171.4,43.7l-3.4-3.7c-4.4,4-7.1,9.7-7.1,16.1h5C-176.9,51.2-174.8,46.7-171.4,43.7z">
     </path>
    </g>
   </g>
  </g>
 </g>
</svg>