<?xml version="1.0" encoding="UTF-8"?> <svg xmlns="http://www.w3.org/2000/svg" width="178" height="50" viewBox="0 0 178 50" fill="none"><g clip-path="url(#clip0_2301_21205)"><path d="M48.5756 0H12.3483C10.7265 -3.89223e-08 9.12053 0.323215 7.62219 0.951187C6.12385 1.57916 4.76246 2.49958 3.61578 3.6599C2.4691 4.82021 1.55959 6.19768 0.939187 7.71365C0.318785 9.22961 -0.00035297 10.8544 2.92956e-07 12.4951V15.3468L0.0672422 15.2379C0.161381 15.0992 0.268968 14.9658 0.355038 14.8135C0.441107 14.6611 0.508349 14.5985 0.58635 14.4897C0.66435 14.3808 0.75311 14.2529 0.839179 14.1359C0.855317 14.1141 0.874145 14.0924 0.890283 14.0679L1.13235 13.7577C1.23725 13.6189 1.34484 13.4856 1.45511 13.3441C1.56539 13.2026 1.6165 13.1482 1.69719 13.0529L2.04146 12.642C2.12215 12.5495 2.20822 12.4597 2.28891 12.3699C2.40995 12.2339 2.53099 12.0978 2.65471 11.9672L2.90485 11.7006C3.03395 11.5672 3.16037 11.4285 3.29216 11.3033C3.37554 11.2189 3.46161 11.14 3.54768 11.0584C3.68217 10.9278 3.81665 10.7863 3.95382 10.672C4.0372 10.5931 4.12596 10.5169 4.22279 10.4407C4.36265 10.3155 4.49176 10.1877 4.64507 10.0652L4.91404 9.8448C5.05928 9.72507 5.20452 9.60262 5.35515 9.48562L5.62411 9.27882C5.77473 9.16181 5.92536 9.04209 6.08136 8.93052L6.35033 8.73461C6.50902 8.62304 6.66502 8.51148 6.8264 8.40264L6.86943 8.36998L7.10881 8.21488L7.59027 7.90196L7.88613 7.72509C8.04751 7.62441 8.20889 7.52645 8.37296 7.43122L8.67689 7.26251C8.84096 7.17272 9.00503 7.0802 9.17179 6.99041L9.48649 6.82986C9.65056 6.74551 9.81732 6.66116 9.98677 6.57953L10.3041 6.42987L10.8125 6.19858L11.1406 6.06252C11.3101 5.99178 11.4822 5.91831 11.6544 5.85028L11.9852 5.72783C12.1331 5.67069 12.2757 5.61355 12.4236 5.56185C15.0488 4.63117 17.8105 4.15555 20.5922 4.15506H49.3986V0.832645C49.3986 0.611814 49.3119 0.400027 49.1575 0.243876C49.0032 0.0877248 48.7938 0 48.5756 0V0Z" fill="#FFC240"></path><path d="M20.5817 13.3334C17.4988 13.2921 14.4744 14.1858 11.8981 15.8992C9.32176 17.6126 7.31167 20.0673 6.1268 22.9468C4.94194 25.8264 4.6366 28.999 5.25013 32.0558C5.86366 35.1125 7.36795 37.9133 9.56916 40.0973C11.7704 42.2813 14.5676 43.7484 17.6005 44.3096C20.6333 44.8707 23.7628 44.5002 26.5856 43.2457C29.4084 41.9913 31.7952 39.9104 33.4384 37.2712C35.0816 34.632 35.906 31.5555 35.8053 28.438C35.7494 26.616 35.3742 24.8185 34.6971 23.1292C34.4871 21.9836 34.6972 20.7998 35.2879 19.7995C35.8787 18.7993 36.8096 18.0513 37.9064 17.6956C39.0031 17.3398 40.1905 17.4008 41.246 17.8671C42.3015 18.3334 43.1527 19.173 43.6403 20.2286C43.7363 20.4395 43.8181 20.6568 43.8851 20.8789C44.8047 23.5357 45.2739 26.3305 45.2729 29.1455C45.2729 29.2598 45.2729 29.3713 45.2729 29.4856C45.2729 29.657 45.2729 29.8285 45.2729 29.9972C45.2729 30.1659 45.2595 30.2693 45.2514 30.4189C45.2434 30.5686 45.2353 30.7509 45.2245 30.9169C45.2138 31.0829 45.2003 31.189 45.1869 31.3468C45.1734 31.5046 45.16 31.6706 45.1438 31.8312C45.1277 31.9917 45.1089 32.125 45.09 32.272C45.0712 32.4189 45.0524 32.5849 45.0282 32.74C45.004 32.8951 44.9825 33.0448 44.9582 33.1944C44.934 33.3441 44.9098 33.4965 44.8829 33.6461C44.856 33.7958 44.8211 33.9563 44.7915 34.1114C44.7619 34.2665 44.735 34.4026 44.7027 34.5468C44.6705 34.691 44.6274 34.8652 44.5898 35.023C44.5629 35.14 44.5387 35.257 44.5091 35.374C44.5012 35.3962 44.4949 35.4189 44.4902 35.442C44.4472 35.6026 44.4015 35.7604 44.3585 35.9209C44.3154 36.0815 44.2831 36.193 44.2428 36.3291C44.2025 36.4651 44.146 36.6475 44.0949 36.8053C44.0438 36.9631 44.0115 37.0774 43.9658 37.2026C43.92 37.3277 43.8555 37.5209 43.799 37.6815C43.7425 37.842 43.7076 37.9372 43.6591 38.0651C43.6107 38.193 43.5354 38.3835 43.4709 38.5413L43.3202 38.9168C43.253 39.0746 43.1831 39.2297 43.1131 39.3876C43.0432 39.5454 43.0055 39.6325 42.9491 39.7549C42.8926 39.8774 42.7984 40.0678 42.7231 40.2229C42.6478 40.378 42.6102 40.4597 42.5483 40.5794C42.4864 40.6991 42.3869 40.8841 42.3062 41.0365C42.2255 41.1889 42.1825 41.2705 42.118 41.3875C42.0534 41.5045 41.9485 41.6869 41.849 41.8338C41.7495 41.9807 41.7172 42.0651 41.6473 42.1794C41.5773 42.2937 41.467 42.4705 41.3783 42.6147L41.1631 42.9576C41.147 42.9794 41.1335 43.0039 41.1174 43.0283C41.0394 43.1481 40.956 43.2624 40.8753 43.3794C40.7946 43.4964 40.722 43.6052 40.644 43.714C40.566 43.8229 40.4396 43.9862 40.3374 44.1331L40.1007 44.4515C39.9958 44.5902 39.8828 44.7236 39.7752 44.8651L39.5386 45.1698C39.4229 45.3086 39.3072 45.4419 39.1889 45.578L38.9441 45.8501L38.5703 46.2555L38.3228 46.5276C38.1937 46.6637 38.0538 46.7997 37.9274 46.9303L37.68 47.178L37.2577 47.5752L37.0533 47.7657L37.0129 47.8011L36.5799 48.1984L36.3325 48.4133C36.1818 48.5385 36.0285 48.6609 35.8752 48.7807C35.7891 48.8487 35.7058 48.9194 35.6062 48.9847L35.1356 49.3385C35.0495 49.4011 34.9634 49.4691 34.8666 49.5317C34.7079 49.646 34.5465 49.7548 34.3851 49.8636L34.2237 49.9752H37.0398C38.6617 49.9756 40.2677 49.6527 41.7662 49.0251C43.2646 48.3974 44.6262 47.4773 45.7732 46.3172C46.9201 45.1572 47.8299 43.7799 48.4506 42.2641C49.0714 40.7483 49.3908 39.1236 49.3908 37.4828V13.3334H20.5817Z" fill="#FFC240"></path></g><path d="M65.216 45.419C65.0787 45.419 64.9621 45.3773 64.866 45.294C64.7837 45.1968 64.7425 45.0788 64.7425 44.94V35.07C64.7425 34.9311 64.7837 34.8201 64.866 34.7368C64.9621 34.6396 65.0787 34.591 65.216 34.591H66.1422C66.2794 34.591 66.3892 34.6396 66.4715 34.7368C66.5676 34.8201 66.6156 34.9311 66.6156 35.07V35.7988C67.3291 34.8548 68.3239 34.3828 69.6001 34.3828C71.1232 34.3828 72.2004 35.0214 72.8316 36.2985C73.1609 35.7155 73.6274 35.2504 74.2312 34.9034C74.835 34.5563 75.5142 34.3828 76.2689 34.3828C77.3941 34.3828 78.3134 34.7715 79.027 35.5489C79.7405 36.3263 80.0973 37.4507 80.0973 38.9222V44.94C80.0973 45.0788 80.0493 45.1968 79.9532 45.294C79.8709 45.3773 79.7611 45.419 79.6239 45.419H78.6565C78.5193 45.419 78.4026 45.3773 78.3066 45.294C78.2242 45.1968 78.1831 45.0788 78.1831 44.94V39.1096C78.1831 38.0268 77.9567 37.2494 77.5039 36.7774C77.0648 36.3055 76.4816 36.0695 75.7543 36.0695C75.1094 36.0695 74.5537 36.3124 74.0871 36.7983C73.6206 37.2703 73.3873 38.0407 73.3873 39.1096V44.94C73.3873 45.0788 73.3393 45.1968 73.2432 45.294C73.1609 45.3773 73.0511 45.419 72.9139 45.419H71.9465C71.8093 45.419 71.6927 45.3773 71.5966 45.294C71.5143 45.1968 71.4731 45.0788 71.4731 44.94V39.1096C71.4731 38.0268 71.2398 37.2494 70.7733 36.7774C70.3205 36.3055 69.7442 36.0695 69.0443 36.0695C68.3994 36.0695 67.8437 36.3124 67.3771 36.7983C66.9106 37.2703 66.6773 38.0338 66.6773 39.0888V44.94C66.6773 45.0788 66.6293 45.1968 66.5332 45.294C66.4509 45.3773 66.3411 45.419 66.2039 45.419H65.216Z" fill="#333333"></path><path d="M88.7559 45.6272C87.3425 45.6272 86.2105 45.1899 85.3597 44.3153C84.5227 43.4269 84.063 42.2192 83.9807 40.6922L83.9601 39.9842L83.9807 39.297C84.0767 37.7978 84.5433 36.6039 85.3803 35.7155C86.231 34.827 87.3494 34.3828 88.7353 34.3828C90.2584 34.3828 91.4385 34.8756 92.2755 35.8612C93.1125 36.833 93.5311 38.1518 93.5311 39.8176V40.1716C93.5311 40.3104 93.483 40.4284 93.387 40.5256C93.3046 40.6089 93.1949 40.6505 93.0576 40.6505H85.936V40.8379C85.9772 41.7402 86.2448 42.5107 86.7387 43.1493C87.2465 43.7739 87.912 44.0863 88.7353 44.0863C89.3665 44.0863 89.881 43.9614 90.279 43.7115C90.6906 43.4477 90.9925 43.177 91.1846 42.8994C91.3081 42.7328 91.3973 42.6356 91.4522 42.6079C91.5208 42.5662 91.6374 42.5454 91.8021 42.5454H92.8107C92.9342 42.5454 93.0371 42.5801 93.1194 42.6495C93.2017 42.7189 93.2429 42.8161 93.2429 42.941C93.2429 43.2464 93.0508 43.6143 92.6666 44.0446C92.2961 44.475 91.7678 44.8498 91.0817 45.1691C90.4093 45.4745 89.6341 45.6272 88.7559 45.6272ZM91.5757 39.2137V39.1513C91.5757 38.1934 91.315 37.416 90.7935 36.8191C90.2858 36.2083 89.5997 35.9029 88.7353 35.9029C87.8708 35.9029 87.1847 36.2083 86.677 36.8191C86.183 37.416 85.936 38.1934 85.936 39.1513V39.2137H91.5757Z" fill="#333333"></path><path d="M101.138 45.6272C100.177 45.6272 99.3677 45.4745 98.7091 45.1691C98.0641 44.8498 97.577 44.4889 97.2477 44.0863C96.9321 43.6837 96.7743 43.3505 96.7743 43.0868C96.7743 42.948 96.8223 42.8439 96.9184 42.7744C97.0281 42.6912 97.1379 42.6495 97.2477 42.6495H98.1739C98.3111 42.6495 98.4346 42.7189 98.5444 42.8577C98.8737 43.2464 99.2305 43.5518 99.6147 43.7739C99.9989 43.9961 100.513 44.1071 101.158 44.1071C101.872 44.1071 102.448 43.9683 102.887 43.6907C103.34 43.3991 103.567 43.0035 103.567 42.5037C103.567 42.1706 103.471 41.8999 103.278 41.6917C103.1 41.4695 102.784 41.2821 102.332 41.1294C101.893 40.9629 101.234 40.7824 100.356 40.588C99.1619 40.3243 98.3111 39.9425 97.8034 39.4428C97.3094 38.943 97.0624 38.2975 97.0624 37.5062C97.0624 36.9787 97.2134 36.479 97.5153 36.007C97.8309 35.5211 98.2837 35.1324 98.8737 34.8409C99.4775 34.5355 100.198 34.3828 101.035 34.3828C101.913 34.3828 102.661 34.5286 103.278 34.8201C103.896 35.1116 104.356 35.4587 104.657 35.8612C104.973 36.2499 105.131 36.5762 105.131 36.8399C105.131 36.9649 105.083 37.069 104.987 37.1523C104.904 37.2355 104.802 37.2772 104.678 37.2772H103.814C103.649 37.2772 103.512 37.2078 103.402 37.069C103.182 36.8052 102.99 36.6039 102.826 36.4651C102.675 36.3124 102.448 36.1805 102.146 36.0695C101.858 35.9584 101.488 35.9029 101.035 35.9029C100.376 35.9029 99.8686 36.0486 99.5118 36.3402C99.155 36.6178 98.9766 36.9857 98.9766 37.4438C98.9766 37.7353 99.0521 37.9852 99.203 38.1934C99.354 38.3878 99.6421 38.5682 100.068 38.7348C100.507 38.9014 101.138 39.0749 101.961 39.2554C103.265 39.533 104.184 39.9356 104.719 40.4631C105.268 40.9767 105.543 41.6361 105.543 42.4413C105.543 43.0382 105.371 43.5796 105.028 44.0655C104.685 44.5513 104.177 44.9331 103.505 45.2107C102.846 45.4884 102.057 45.6272 101.138 45.6272Z" fill="#333333"></path><path d="M113.071 45.6272C112.11 45.6272 111.301 45.4745 110.642 45.1691C109.997 44.8498 109.51 44.4889 109.181 44.0863C108.865 43.6837 108.707 43.3505 108.707 43.0868C108.707 42.948 108.755 42.8439 108.852 42.7744C108.961 42.6912 109.071 42.6495 109.181 42.6495H110.107C110.244 42.6495 110.368 42.7189 110.478 42.8577C110.807 43.2464 111.164 43.5518 111.548 43.7739C111.932 43.9961 112.447 44.1071 113.092 44.1071C113.805 44.1071 114.381 43.9683 114.821 43.6907C115.273 43.3991 115.5 43.0035 115.5 42.5037C115.5 42.1706 115.404 41.8999 115.212 41.6917C115.033 41.4695 114.718 41.2821 114.265 41.1294C113.826 40.9629 113.167 40.7824 112.289 40.588C111.095 40.3243 110.244 39.9425 109.737 39.4428C109.243 38.943 108.996 38.2975 108.996 37.5062C108.996 36.9787 109.147 36.479 109.448 36.007C109.764 35.5211 110.217 35.1324 110.807 34.8409C111.411 34.5355 112.131 34.3828 112.968 34.3828C113.846 34.3828 114.594 34.5286 115.212 34.8201C115.829 35.1116 116.289 35.4587 116.591 35.8612C116.906 36.2499 117.064 36.5762 117.064 36.8399C117.064 36.9649 117.016 37.069 116.92 37.1523C116.838 37.2355 116.735 37.2772 116.611 37.2772H115.747C115.582 37.2772 115.445 37.2078 115.335 37.069C115.116 36.8052 114.923 36.6039 114.759 36.4651C114.608 36.3124 114.381 36.1805 114.08 36.0695C113.791 35.9584 113.421 35.9029 112.968 35.9029C112.309 35.9029 111.802 36.0486 111.445 36.3402C111.088 36.6178 110.91 36.9857 110.91 37.4438C110.91 37.7353 110.985 37.9852 111.136 38.1934C111.287 38.3878 111.575 38.5682 112.001 38.7348C112.44 38.9014 113.071 39.0749 113.894 39.2554C115.198 39.533 116.117 39.9356 116.652 40.4631C117.201 40.9767 117.476 41.6361 117.476 42.4413C117.476 43.0382 117.304 43.5796 116.961 44.0655C116.618 44.5513 116.11 44.9331 115.438 45.2107C114.779 45.4884 113.99 45.6272 113.071 45.6272Z" fill="#333333"></path><path d="M124.284 45.6272C123.611 45.6272 122.987 45.4884 122.411 45.2107C121.834 44.9331 121.375 44.5583 121.032 44.0863C120.702 43.6004 120.538 43.066 120.538 42.4829C120.538 41.5667 120.908 40.8171 121.649 40.2341C122.404 39.6371 123.419 39.2484 124.695 39.068L127.762 38.6307V38.0268C127.762 36.6109 126.96 35.9029 125.354 35.9029C124.75 35.9029 124.256 36.0348 123.872 36.2985C123.488 36.5484 123.2 36.8469 123.008 37.1939C122.966 37.3188 122.912 37.4091 122.843 37.4646C122.788 37.5201 122.706 37.5479 122.596 37.5479H121.711C121.587 37.5479 121.478 37.5062 121.382 37.423C121.299 37.3258 121.258 37.2147 121.258 37.0898C121.272 36.7566 121.423 36.3818 121.711 35.9654C122.013 35.535 122.472 35.1671 123.09 34.8617C123.707 34.5424 124.469 34.3828 125.375 34.3828C126.911 34.3828 128.016 34.7507 128.688 35.4864C129.361 36.2083 129.697 37.1106 129.697 38.1934V44.94C129.697 45.0788 129.649 45.1968 129.553 45.294C129.471 45.3773 129.361 45.419 129.224 45.419H128.277C128.14 45.419 128.023 45.3773 127.927 45.294C127.845 45.1968 127.803 45.0788 127.803 44.94V44.0446C127.502 44.4889 127.062 44.8637 126.486 45.1691C125.91 45.4745 125.176 45.6272 124.284 45.6272ZM124.716 44.0655C125.608 44.0655 126.335 43.7739 126.898 43.1909C127.474 42.594 127.762 41.7402 127.762 40.6297V40.0466L125.375 40.4006C124.4 40.5395 123.666 40.7754 123.172 41.1086C122.678 41.4279 122.431 41.8374 122.431 42.3372C122.431 42.8924 122.658 43.3228 123.111 43.6282C123.563 43.9197 124.099 44.0655 124.716 44.0655Z" fill="#333333"></path><path d="M138.481 50C137.356 50 136.45 49.8057 135.764 49.417C135.078 49.0421 134.591 48.6118 134.303 48.1259C134.014 47.6401 133.857 47.2028 133.829 46.8141C133.815 46.6753 133.857 46.5573 133.953 46.4601C134.062 46.3629 134.179 46.3143 134.303 46.3143H135.291C135.414 46.3143 135.517 46.3421 135.599 46.3976C135.682 46.467 135.75 46.585 135.805 46.7516C135.97 47.1958 136.237 47.5776 136.608 47.8969C136.992 48.2301 137.582 48.3966 138.378 48.3966C139.393 48.3966 140.141 48.1745 140.621 47.7303C141.102 47.3 141.342 46.5295 141.342 45.419V44.003C140.985 44.4611 140.532 44.829 139.983 45.1066C139.435 45.3704 138.783 45.5022 138.028 45.5022C136.574 45.5022 135.483 45.0372 134.755 44.1071C134.042 43.1631 133.665 41.9693 133.623 40.5256L133.603 39.9425L133.623 39.3803C133.665 37.9505 134.049 36.7636 134.776 35.8196C135.503 34.8617 136.587 34.3828 138.028 34.3828C139.469 34.3828 140.594 34.9173 141.404 35.9862V35.0908C141.404 34.952 141.445 34.834 141.527 34.7368C141.623 34.6396 141.74 34.591 141.877 34.591H142.824C142.961 34.591 143.078 34.6396 143.174 34.7368C143.27 34.834 143.318 34.952 143.318 35.0908V45.1899C143.318 48.3966 141.705 50 138.481 50ZM138.44 43.8364C139.373 43.8364 140.079 43.5241 140.56 42.8994C141.04 42.2747 141.301 41.532 141.342 40.6713C141.356 40.5464 141.362 40.3035 141.362 39.9425C141.362 39.5955 141.356 39.3595 141.342 39.2345C141.301 38.3739 141.04 37.6312 140.56 37.0065C140.093 36.3818 139.387 36.0695 138.44 36.0695C137.465 36.0695 136.759 36.3749 136.32 36.9857C135.881 37.5965 135.64 38.4016 135.599 39.4011L135.579 39.9425L135.599 40.5047C135.64 41.4904 135.881 42.2955 136.32 42.9202C136.759 43.531 137.465 43.8364 138.44 43.8364Z" fill="#333333"></path><path d="M148.128 32.5712C147.99 32.5712 147.874 32.5296 147.778 32.4463C147.695 32.3491 147.654 32.2311 147.654 32.0923V30.9678C147.654 30.829 147.695 30.711 147.778 30.6139C147.874 30.5167 147.99 30.4681 148.128 30.4681H149.424C149.562 30.4681 149.678 30.5167 149.774 30.6139C149.87 30.711 149.918 30.829 149.918 30.9678V32.0923C149.918 32.2311 149.87 32.3491 149.774 32.4463C149.678 32.5296 149.562 32.5712 149.424 32.5712H148.128ZM148.292 45.419C148.155 45.419 148.038 45.3773 147.942 45.294C147.86 45.1968 147.819 45.0788 147.819 44.94V35.07C147.819 34.9311 147.86 34.8201 147.942 34.7368C148.038 34.6396 148.155 34.591 148.292 34.591H149.28C149.417 34.591 149.527 34.6396 149.61 34.7368C149.706 34.8201 149.754 34.9311 149.754 35.07V44.94C149.754 45.0788 149.706 45.1968 149.61 45.294C149.527 45.3773 149.417 45.419 149.28 45.419H148.292Z" fill="#333333"></path><path d="M154.718 45.419C154.581 45.419 154.464 45.3773 154.368 45.294C154.286 45.1968 154.245 45.0788 154.245 44.94V35.07C154.245 34.9311 154.286 34.8201 154.368 34.7368C154.464 34.6396 154.581 34.591 154.718 34.591H155.685C155.823 34.591 155.932 34.6396 156.015 34.7368C156.111 34.8201 156.159 34.9311 156.159 35.07V35.9862C156.557 35.4725 157.023 35.0769 157.558 34.7993C158.107 34.5216 158.786 34.3828 159.596 34.3828C160.913 34.3828 161.936 34.8131 162.663 35.6738C163.404 36.5206 163.774 37.652 163.774 39.068V44.94C163.774 45.0788 163.726 45.1968 163.63 45.294C163.548 45.3773 163.438 45.419 163.301 45.419H162.272C162.135 45.419 162.018 45.3773 161.922 45.294C161.84 45.1968 161.798 45.0788 161.798 44.94V39.1721C161.798 38.1865 161.558 37.423 161.078 36.8816C160.611 36.3402 159.932 36.0695 159.04 36.0695C158.176 36.0695 157.49 36.3471 156.982 36.9024C156.474 37.4438 156.22 38.2003 156.22 39.1721V44.94C156.22 45.0788 156.172 45.1968 156.076 45.294C155.994 45.3773 155.884 45.419 155.747 45.419H154.718Z" fill="#333333"></path><path d="M172.552 50C171.427 50 170.521 49.8057 169.835 49.417C169.149 49.0421 168.662 48.6118 168.373 48.1259C168.085 47.6401 167.927 47.2028 167.9 46.8141C167.886 46.6753 167.927 46.5573 168.024 46.4601C168.133 46.3629 168.25 46.3143 168.373 46.3143H169.361C169.485 46.3143 169.588 46.3421 169.67 46.3976C169.752 46.467 169.821 46.585 169.876 46.7516C170.041 47.1958 170.308 47.5776 170.679 47.8969C171.063 48.2301 171.653 48.3966 172.449 48.3966C173.464 48.3966 174.212 48.1745 174.692 47.7303C175.173 47.3 175.413 46.5295 175.413 45.419V44.003C175.056 44.4611 174.603 44.829 174.054 45.1066C173.505 45.3704 172.854 45.5022 172.099 45.5022C170.644 45.5022 169.554 45.0372 168.826 44.1071C168.113 43.1631 167.735 41.9693 167.694 40.5256L167.674 39.9425L167.694 39.3803C167.735 37.9505 168.12 36.7636 168.847 35.8196C169.574 34.8617 170.658 34.3828 172.099 34.3828C173.54 34.3828 174.665 34.9173 175.474 35.9862V35.0908C175.474 34.952 175.516 34.834 175.598 34.7368C175.694 34.6396 175.811 34.591 175.948 34.591H176.895C177.032 34.591 177.149 34.6396 177.245 34.7368C177.341 34.834 177.389 34.952 177.389 35.0908V45.1899C177.389 48.3966 175.776 50 172.552 50ZM172.511 43.8364C173.444 43.8364 174.15 43.5241 174.631 42.8994C175.111 42.2747 175.372 41.532 175.413 40.6713C175.426 40.5464 175.433 40.3035 175.433 39.9425C175.433 39.5955 175.426 39.3595 175.413 39.2345C175.372 38.3739 175.111 37.6312 174.631 37.0065C174.164 36.3818 173.457 36.0695 172.511 36.0695C171.536 36.0695 170.83 36.3749 170.391 36.9857C169.951 37.5965 169.711 38.4016 169.67 39.4011L169.65 39.9425L169.67 40.5047C169.711 41.4904 169.951 42.2955 170.391 42.9202C170.83 43.531 171.536 43.8364 172.511 43.8364Z" fill="#333333"></path><path d="M74.9376 25.7871C72.6954 25.7871 70.7719 25.4528 69.167 24.7843C67.5621 24.1157 66.3466 23.2442 65.5206 22.1697C64.7181 21.0714 64.2933 19.8776 64.2461 18.5882C64.2461 18.3972 64.3169 18.2301 64.4585 18.0868C64.6237 17.9197 64.8125 17.8361 65.0249 17.8361H69.4856C69.7689 17.8361 69.9931 17.8958 70.1583 18.0152C70.3471 18.1107 70.5359 18.2659 70.7247 18.4808C71.0315 19.1016 71.5272 19.6149 72.2116 20.0208C72.8961 20.4267 73.8047 20.6297 74.9376 20.6297C76.2829 20.6297 77.3096 20.4148 78.0176 19.985C78.7256 19.5552 79.0797 18.9702 79.0797 18.2301C79.0797 17.7048 78.8909 17.275 78.5132 16.9407C78.1592 16.6064 77.5928 16.308 76.8139 16.0453C76.0351 15.7827 74.8786 15.4842 73.3445 15.1499C70.5123 14.553 68.3882 13.6815 66.9721 12.5354C65.5796 11.3654 64.8833 9.70598 64.8833 7.55706C64.8833 6.10056 65.2846 4.79927 66.087 3.65317C66.8895 2.50708 68.0341 1.61169 69.521 0.967017C71.0079 0.322339 72.7427 0 74.7252 0C76.7785 0 78.5604 0.358155 80.0709 1.07446C81.5814 1.79077 82.7261 2.6981 83.505 3.79644C84.3074 4.8709 84.7322 5.93342 84.7794 6.98401C84.7794 7.1989 84.7086 7.37798 84.567 7.52124C84.4254 7.6645 84.2484 7.73613 84.036 7.73613H79.3629C79.0797 7.73613 78.8437 7.68838 78.6548 7.59287C78.4896 7.49736 78.3362 7.34216 78.1946 7.12727C78.053 6.5781 77.6636 6.1125 77.0263 5.73047C76.4127 5.34844 75.6456 5.15742 74.7252 5.15742C73.6631 5.15742 72.8489 5.34844 72.2824 5.73047C71.716 6.1125 71.4328 6.67361 71.4328 7.41379C71.4328 7.91521 71.5862 8.33306 71.893 8.66733C72.2234 9.00161 72.7427 9.31201 73.4507 9.59853C74.1823 9.86118 75.2208 10.1358 76.5661 10.4223C78.761 10.8282 80.5076 11.3416 81.8056 11.9624C83.1273 12.5593 84.095 13.3472 84.7086 14.3262C85.3223 15.2812 85.6291 16.487 85.6291 17.9435C85.6291 19.5433 85.1689 20.9401 84.2484 22.1339C83.3515 23.3039 82.0889 24.2112 80.4604 24.8559C78.8555 25.4767 77.0145 25.7871 74.9376 25.7871Z" fill="#333333"></path><path d="M90.0574 25.429C89.8214 25.429 89.609 25.3454 89.4202 25.1782C89.255 24.9872 89.1724 24.7723 89.1724 24.5336V1.25354C89.1724 0.990893 89.255 0.776001 89.4202 0.608863C89.609 0.441724 89.8214 0.358154 90.0574 0.358154H94.8013C95.061 0.358154 95.2734 0.441724 95.4386 0.608863C95.6274 0.776001 95.7218 0.990893 95.7218 1.25354V24.5336C95.7218 24.7962 95.6274 25.0111 95.4386 25.1782C95.2734 25.3454 95.061 25.429 94.8013 25.429H90.0574Z" fill="#333333"></path><path d="M110.882 25.7871C107.483 25.7871 104.828 24.9514 102.916 23.28C101.004 21.5848 99.9896 19.1851 99.8716 16.0811C99.848 15.3887 99.8362 14.2904 99.8362 12.7861C99.8362 11.2819 99.848 10.1835 99.8716 9.49109C99.9896 6.45872 101.016 4.11877 102.952 2.47126C104.911 0.823755 107.554 0 110.882 0C113.124 0 115.071 0.370093 116.723 1.11028C118.399 1.85046 119.673 2.7936 120.547 3.9397C121.443 5.08579 121.915 6.2677 121.963 7.48542C121.963 7.70032 121.88 7.87939 121.715 8.02266C121.573 8.16592 121.396 8.23755 121.184 8.23755H116.015C115.779 8.23755 115.59 8.20173 115.449 8.1301C115.307 8.05847 115.189 7.92715 115.095 7.73613C114.788 7.0437 114.304 6.44678 113.643 5.94536C112.982 5.42007 112.062 5.15742 110.882 5.15742C108.073 5.15742 106.598 6.66167 106.456 9.67017C106.433 10.3387 106.421 11.3774 106.421 12.7861C106.421 14.171 106.433 15.2096 106.456 15.902C106.598 19.0538 108.109 20.6297 110.988 20.6297C112.38 20.6297 113.49 20.2715 114.316 19.5552C115.165 18.815 115.59 17.6928 115.59 16.1886V15.5081H112.262C112.003 15.5081 111.79 15.4245 111.625 15.2574C111.46 15.0664 111.377 14.8395 111.377 14.5769V11.9265C111.377 11.6639 111.46 11.449 111.625 11.2819C111.79 11.0908 112.003 10.9953 112.262 10.9953H121.184C121.443 10.9953 121.656 11.0908 121.821 11.2819C121.986 11.449 122.069 11.6639 122.069 11.9265V16.0095C122.069 18.039 121.609 19.794 120.688 21.2744C119.768 22.7309 118.458 23.8531 116.759 24.641C115.083 25.4051 113.124 25.7871 110.882 25.7871Z" fill="#333333"></path><path d="M127.016 25.429C126.779 25.429 126.567 25.3454 126.378 25.1782C126.213 24.9872 126.13 24.7723 126.13 24.5336V1.25354C126.13 0.990893 126.213 0.776001 126.378 0.608863C126.567 0.441724 126.779 0.358154 127.016 0.358154H130.839C131.405 0.358154 131.818 0.6208 132.078 1.14609L138.309 12.428L144.54 1.14609C144.799 0.6208 145.212 0.358154 145.779 0.358154H149.567C149.826 0.358154 150.039 0.441724 150.204 0.608863C150.393 0.776001 150.487 0.990893 150.487 1.25354V24.5336C150.487 24.7962 150.393 25.0111 150.204 25.1782C150.039 25.3454 149.826 25.429 149.567 25.429H145.354C145.094 25.429 144.87 25.3454 144.681 25.1782C144.516 25.0111 144.433 24.7962 144.433 24.5336V11.1028L140.468 18.5882C140.162 19.1374 139.749 19.412 139.229 19.412H137.388C137.082 19.412 136.834 19.3403 136.645 19.1971C136.456 19.0538 136.291 18.8509 136.149 18.5882L132.149 11.1028V24.5336C132.149 24.7723 132.066 24.9872 131.901 25.1782C131.736 25.3454 131.523 25.429 131.264 25.429H127.016Z" fill="#333333"></path><path d="M154.032 25.429C153.843 25.429 153.666 25.3573 153.501 25.2141C153.359 25.0469 153.288 24.8678 153.288 24.6768C153.288 24.5336 153.3 24.4261 153.324 24.3545L161.643 1.36099C161.714 1.07446 161.868 0.835694 162.104 0.644678C162.34 0.453662 162.646 0.358154 163.024 0.358154H168.264C168.641 0.358154 168.948 0.453662 169.184 0.644678C169.42 0.835694 169.574 1.07446 169.644 1.36099L177.928 24.3545L177.999 24.6768C177.999 24.8678 177.917 25.0469 177.751 25.2141C177.61 25.3573 177.433 25.429 177.22 25.429H172.866C172.3 25.429 171.922 25.1782 171.733 24.6768L170.352 21.0237H160.9L159.555 24.6768C159.366 25.1782 158.976 25.429 158.386 25.429H154.032ZM168.936 15.8662L165.644 6.41096L162.351 15.8662H168.936Z" fill="#333333"></path><defs><clipPath id="clip0_2301_21205"><rect width="49.3986" height="49.975" fill="white"></rect></clipPath></defs></svg> 