<?xml version="1.0" encoding="UTF-8"?>
<!DOCTYPE svg PUBLIC "-//W3C//DTD SVG 1.1//EN" "http://www.w3.org/Graphics/SVG/1.1/DTD/svg11.dtd">
<!-- Creator: CorelDRAW X7 -->
<svg xmlns="http://www.w3.org/2000/svg" xml:space="preserve" width="2650px" height="350px" version="1.1" style="shape-rendering:geometricPrecision; text-rendering:geometricPrecision; image-rendering:optimizeQuality; fill-rule:evenodd; clip-rule:evenodd"
viewBox="0 0 2714 358"
 xmlns:xlink="http://www.w3.org/1999/xlink">
 <defs>
  <style type="text/css">
   <![CDATA[
    .fil1 {fill:#5B5B5B;fill-rule:nonzero}
    .fil0 {fill:#FF7400;fill-rule:nonzero}
   ]]>
  </style>
 </defs>
 <g id="Capa_x0020_1">
  <metadata id="CorelCorpID_0Corel-Layer"/>
  <g id="_694978096">
   <path class="fil0" d="M1345 46c0,-22 18,-40 40,-40 22,0 39,18 39,40 0,22 -17,40 -39,40 -22,0 -40,-18 -40,-40z"/>
   <path class="fil0" d="M346 2c-26,-7 -52,8 -59,34 -4,17 0,34 11,46l-26 38c-5,-2 -11,-5 -16,-6 -35,-10 -72,11 -81,46 -3,12 -3,23 1,34l-54 31c-9,-14 -22,-25 -39,-30 -36,-9 -72,11 -81,47 -9,35 12,72 48,81 35,10 71,-10 80,-46 3,-10 3,-21 1,-31l54 -31c9,13 22,22 38,27 13,3 26,3 38,-1l15 29c-8,6 -14,15 -17,26 -7,26 9,53 35,60 26,8 53,-8 59,-34 7,-26 -8,-53 -34,-60 -9,-3 -17,-3 -24,-1l-15 -30c11,-8 19,-21 23,-35 6,-23 0,-46 -15,-62l28 -39c2,0 4,1 6,2 26,7 53,-8 59,-35 7,-26 -9,-53 -35,-60zm-273 307l0 0c-15,0 -28,-13 -28,-28 0,-16 13,-28 28,-28 15,0 28,12 28,28 0,15 -13,28 -28,28zm233 -3l0 0c11,0 21,9 21,21 0,12 -10,22 -21,22 -12,0 -22,-10 -22,-22 0,-12 10,-21 22,-21zm-49 -81l0 0c-16,0 -28,-13 -28,-28 0,-15 12,-28 28,-28 15,0 28,13 28,28 0,15 -13,28 -28,28zm70 -141l0 0c-12,0 -21,-9 -21,-21 0,-12 9,-22 21,-22 12,0 22,10 22,22 0,12 -10,21 -22,21z"/>
   <polygon class="fil1" points="671,117 383,117 383,166 485,166 485,313 568,313 568,166 671,166 "/>
   <path class="fil1" d="M775 193l201 1 0 41 -201 -1 0 30 140 0 74 0 1 49 -238 0c-14,0 -27,-5 -37,-15 -10,-10 -15,-22 -15,-37l0 -92c0,-15 5,-27 15,-37 10,-10 23,-15 37,-15l238 0 -1 49 -214 0 0 27z"/>
   <path class="fil1" d="M1240 263l-137 0 0 -98 0 -48 -77 0 1 144c0,14 5,26 15,36 11,11 23,16 37,16l237 0 0 -50 -76 0z"/>
   <polygon class="fil1" points="1423,223 1423,197 1423,117 1346,117 1346,313 1423,313 1423,243 "/>
   <path class="fil1" d="M1675 313l76 0 0 -144c0,-15 -5,-27 -15,-37 -10,-10 -23,-15 -37,-15l-238 0 -1 49 0 31 1 116 74 0 0 -147 141 0 -1 147z"/>
   <polygon class="fil0" points="2069,117 1781,117 1781,166 1883,166 1883,313 1967,313 1967,166 2069,166 "/>
   <path class="fil1" d="M2173 193l201 1 0 41 -201 -1 0 30 140 0 74 0 1 49 -238 0c-14,0 -27,-5 -37,-15 -10,-10 -15,-22 -15,-37l0 -92c0,-15 5,-27 15,-37 10,-10 23,-15 37,-15l238 0 -1 49 -214 0 0 27z"/>
   <path class="fil1" d="M2638 263l-137 0 0 -98 0 -48 -77 0 1 144c0,14 5,26 16,36 10,11 22,16 36,16l237 0 0 -50 -76 0z"/>
  </g>
 </g>
</svg>
