<svg width="295" height="100" viewBox="0 0 63 24" fill="none" xmlns="http://www.w3.org/2000/svg">
            <path d="M62.9968 18.5537C62.9968 15.2509 60.2452 14.2309 57.2479 13.5994C54.5945 13.0651 52.8256 12.3366 52.8256 10.7337C52.8256 9.5194 53.9558 8.25654 56.4126 8.25654C58.4763 8.25654 59.9995 9.37368 60.6383 9.90797L62.2106 8.35369C61.5227 7.72226 59.5082 6.16797 56.4126 6.16797C52.7765 6.16797 50.4671 8.4994 50.4671 10.6366C50.4671 13.2594 52.2852 14.7651 56.4126 15.5909C58.5746 16.028 60.5891 16.6594 60.5891 18.6023C60.5891 20.1566 58.5254 21.0309 56.56 21.0309C54.398 21.0309 52.8256 19.9137 51.9903 19.1366L50.418 20.6909C51.499 21.7109 53.5627 23.1194 56.56 23.1194C59.7538 23.0709 62.9968 21.5166 62.9968 18.5537Z" fill="#0B353D"></path>
            <path d="M23.2925 6.50781H21.1797V22.8278H23.2925V6.50781Z" fill="#0B353D"></path>
            <path d="M30.125 14.5706C30.125 19.2335 33.9576 23.0706 38.7238 23.0706C40.9841 23.0706 43.0969 22.1963 44.7184 20.642L43.2444 19.1849C42.0159 20.3506 40.3945 20.982 38.7238 20.982C35.1369 21.0306 32.1887 18.1163 32.1887 14.5706C32.1887 11.0249 35.0878 8.15914 38.6747 8.15914C40.2962 8.15914 41.8194 8.742 42.9987 9.81057L44.4728 8.35343C42.9004 6.89629 40.8367 6.11914 38.6747 6.11914C33.9576 6.11914 30.125 9.90772 30.125 14.5706Z" fill="#0B353D"></path>
            <path d="M6.34226 6.12C5.16299 6.12 4.03286 6.36286 2.95187 6.8L2.46051 6.99428V0H0.347656V8.16L1.96915 9.76285C3.14841 8.69428 4.67163 8.11143 6.29312 8.11143C9.88005 8.11143 12.7791 10.9771 12.7791 14.5229C12.7791 18.0686 9.92919 21.0314 6.34226 21.0314C4.67163 21.0314 3.05014 20.4 1.87087 19.2343L0.396792 20.6914C2.01828 22.2457 4.13113 23.0714 6.34226 23.0714C11.0593 23.0714 14.9411 19.2829 14.9411 14.5714C14.9411 9.86 11.1085 6.12 6.34226 6.12Z" fill="#0B353D"></path>
        </svg>