<svg xmlns="http://www.w3.org/2000/svg" width="216" height="36" viewBox="0 0 216 36" fill="none" class="svgimg convertnow replaced-svg">
<path d="M47.2899 22.8284C47.2899 21.5858 47.503 20.4852 47.9645 19.5621C48.3905 18.639 49.0296 17.858 49.7752 17.2189C50.5562 16.5799 51.4438 16.1183 52.4734 15.7988C53.503 15.4793 54.6391 15.3017 55.8817 15.3017C57.4793 15.3017 58.9349 15.5858 60.213 16.1893C61.4911 16.7929 62.5207 17.6804 63.2663 18.852C64.0119 17.6804 65.0414 16.7929 66.284 16.1893C67.5266 15.5858 68.9468 15.3017 70.5444 15.3017C71.7515 15.3017 72.8521 15.4438 73.9172 15.7633C74.9468 16.0828 75.8699 16.5443 76.6154 17.1834C77.361 17.8225 77.9645 18.6035 78.4261 19.5266C78.8521 20.4497 79.1006 21.5503 79.1006 22.7929V35.4674H74.6627V24.3195C74.6627 22.5088 74.2722 21.2307 73.4556 20.4852C72.6391 19.7041 71.5385 19.3491 70.1894 19.3491C68.8758 19.3491 67.7397 19.7751 66.8521 20.6272C65.9645 21.4793 65.503 22.8639 65.503 24.8165V35.4674H61.0651V24.8165C61.0651 22.8994 60.6036 21.4793 59.716 20.6272C58.8284 19.7751 57.6923 19.3491 56.3787 19.3491C55.0296 19.3491 53.929 19.7396 53.1124 20.5207C52.2959 21.3017 51.8698 22.5798 51.8698 24.3905V35.5029H47.432V22.8284H47.2899ZM99.7279 34.0118C99.5148 34.1538 99.1953 34.3313 98.7338 34.5443C98.2722 34.7574 97.7397 35.0059 97.0651 35.2189C96.3906 35.4319 95.645 35.6094 94.7574 35.7514C93.8699 35.8934 92.9113 36 91.8817 36C90.4261 36 89.077 35.7869 87.7989 35.3254C86.5207 34.8639 85.4202 34.2248 84.4616 33.3372C83.503 32.4497 82.7574 31.3846 82.2249 30.142C81.6923 28.8639 81.4083 27.4437 81.4083 25.7751C81.4083 24.213 81.6923 22.7929 82.2249 21.4793C82.7574 20.2011 83.503 19.0651 84.4616 18.142C85.4202 17.2189 86.5207 16.5088 87.8344 15.9763C89.1125 15.4793 90.5326 15.2307 92.0592 15.2307C93.4083 15.2307 94.6154 15.4083 95.645 15.7633C96.6746 16.1183 97.5622 16.5799 98.2722 17.1834C98.9823 17.7514 99.5148 18.4615 99.9054 19.2426C100.26 20.0236 100.438 20.8402 100.438 21.7278C100.438 22.6509 100.26 23.4674 99.9409 24.213C99.5858 24.9585 99.0178 25.5976 98.1302 26.1301C97.2781 26.6627 96.1066 27.0887 94.6509 27.3727C93.1953 27.6568 91.3491 27.8343 89.1125 27.8343C88.5799 27.8343 88.1184 27.8343 87.6568 27.7988C87.1953 27.7988 86.6983 27.7633 86.2012 27.7278C86.4142 29.0414 87.0533 30.142 88.1184 30.9585C89.1835 31.7751 90.7456 32.2011 92.7338 32.2011C93.4083 32.2011 94.0474 32.1656 94.6154 32.0591C95.1835 31.9526 95.716 31.8106 96.142 31.6686C96.6036 31.5266 96.9941 31.3491 97.3137 31.2071C97.6332 31.065 97.8817 30.923 98.0237 30.852L99.7279 34.0118ZM85.9882 24.7455C86.5917 24.781 87.1598 24.781 87.6923 24.781C88.2249 24.781 88.7929 24.781 89.3255 24.781C90.7456 24.781 91.9172 24.6745 92.8048 24.497C93.6923 24.3195 94.3669 24.071 94.8639 23.7869C95.361 23.5029 95.6805 23.1834 95.858 22.7929C96 22.4378 96.1066 22.0473 96.1066 21.6568C96.1066 20.6627 95.716 19.9171 94.8994 19.4201C94.1184 18.923 93.1243 18.6745 91.9527 18.6745C90.9941 18.6745 90.142 18.852 89.3965 19.1716C88.6509 19.5266 88.0474 19.9526 87.5503 20.5207C87.0533 21.0887 86.6628 21.7278 86.4142 22.4378C86.1657 23.2544 86.0237 24 85.9882 24.7455ZM118.544 25.6331C118.544 24.7455 118.402 23.929 118.083 23.1479C117.799 22.3668 117.373 21.6923 116.84 21.1242C116.308 20.5562 115.704 20.0946 114.959 19.7751C114.213 19.4556 113.396 19.2781 112.509 19.2781C111.586 19.2781 110.769 19.4556 110.059 19.7751C109.314 20.0946 108.71 20.5562 108.178 21.0887C107.645 21.6213 107.219 22.3313 106.935 23.1124C106.651 23.8935 106.509 24.7455 106.509 25.6686C106.509 26.5917 106.651 27.4082 106.935 28.1893C107.219 28.9704 107.645 29.6094 108.178 30.1775C108.71 30.7455 109.349 31.1716 110.059 31.4911C110.805 31.8106 111.621 31.9881 112.509 31.9881C113.396 31.9881 114.213 31.8461 114.959 31.5266C115.704 31.2071 116.343 30.781 116.84 30.2485C117.373 29.7159 117.763 29.0414 118.083 28.2603C118.402 27.4437 118.544 26.5917 118.544 25.6331ZM118.544 7.38459H122.947V24.71C122.947 26.5917 122.663 28.2603 122.13 29.6804C121.598 31.1005 120.852 32.2721 119.929 33.1952C119.006 34.1183 117.87 34.8284 116.592 35.2899C115.314 35.7514 113.929 36 112.402 36C110.876 36 109.456 35.7514 108.178 35.2189C106.899 34.6863 105.763 33.9763 104.84 33.0532C103.917 32.1301 103.172 31.065 102.639 29.7869C102.107 28.5088 101.823 27.1242 101.823 25.6331C101.823 24.1065 102.071 22.7219 102.568 21.4793C103.065 20.2011 103.775 19.1361 104.663 18.213C105.55 17.2899 106.615 16.5799 107.823 16.0473C109.03 15.5503 110.343 15.3017 111.799 15.3017C113.325 15.3017 114.639 15.5858 115.775 16.1893C116.911 16.7574 117.834 17.4674 118.473 18.3195V7.38459H118.544ZM130.97 35.4674H126.533V15.9053H130.97V35.4674ZM128.769 7.06506C129.515 7.06506 130.154 7.31358 130.686 7.84613C131.219 8.37867 131.468 9.01772 131.468 9.76329C131.468 10.5088 131.219 11.1479 130.686 11.6804C130.154 12.213 129.515 12.4615 128.769 12.4615C128.024 12.4615 127.385 12.213 126.852 11.6804C126.32 11.1479 126.071 10.5088 126.071 9.76329C126.071 9.01772 126.32 8.37867 126.852 7.84613C127.349 7.31358 127.988 7.06506 128.769 7.06506ZM148.225 26.6982C147.976 26.6627 147.479 26.5562 146.769 26.4497C146.059 26.3432 144.994 26.3077 143.539 26.3077C141.763 26.3077 140.485 26.5917 139.669 27.1242C138.852 27.6568 138.462 28.5088 138.462 29.6449C138.462 30.1065 138.533 30.5325 138.71 30.923C138.888 31.3136 139.172 31.6331 139.598 31.9171C140.024 32.2011 140.592 32.4142 141.302 32.5562C142.012 32.6982 142.899 32.7692 143.965 32.7692C145.172 32.7692 146.13 32.7337 146.805 32.6272C147.515 32.5207 147.976 32.4497 148.225 32.4142V26.6982ZM152.627 35.3609C152.379 35.3964 151.953 35.4674 151.385 35.5384C150.817 35.6094 150.178 35.6804 149.397 35.7514C148.651 35.8224 147.799 35.8934 146.84 35.9289C145.917 35.9645 144.923 36 143.894 36C141.87 36 140.201 35.8224 138.923 35.4674C137.645 35.1124 136.615 34.6508 135.87 34.0473C135.124 33.4792 134.627 32.7692 134.343 32.0236C134.059 31.2781 133.917 30.4615 133.917 29.6449C133.917 28.5798 134.095 27.6568 134.414 26.8402C134.734 26.0236 135.266 25.3491 136.012 24.8165C136.757 24.284 137.716 23.858 138.923 23.5739C140.13 23.2899 141.586 23.1479 143.29 23.1479C144.284 23.1479 145.207 23.1834 146.095 23.2544C146.982 23.3254 147.657 23.3609 148.083 23.4319C148.083 22.5088 147.941 21.8343 147.621 21.2307C147.124 20.2367 146.201 19.7396 145.172 19.4201C144.391 19.1716 143.503 19.0296 142.473 18.9585C141.799 18.923 141.124 18.9585 140.556 19.0296C139.988 19.1006 139.456 19.2071 138.994 19.3491C138.533 19.4911 138.142 19.6331 137.787 19.7751C137.468 19.9171 137.219 20.0236 137.041 20.0946L135.586 16.9349C135.799 16.8284 136.118 16.6509 136.58 16.4378C137.041 16.2248 137.61 16.0473 138.249 15.8698C138.923 15.6923 139.704 15.5503 140.556 15.4438C141.444 15.3372 142.402 15.3017 143.432 15.3372C144.888 15.4083 146.237 15.6923 147.479 16.1893C149.255 16.8994 150.852 18.071 151.669 19.8106C152.166 20.8757 152.414 22.1538 152.414 23.6804V35.3609H152.627ZM156.391 16.2958C156.391 14.8757 156.604 13.6331 156.994 12.639C157.136 12.2485 157.314 11.8935 157.527 11.5739C158.521 9.79879 160.26 8.59169 162.71 8.30767C163.74 8.20116 164.592 8.16565 165.444 8.23666C167.219 8.37867 168.888 8.6627 170.485 9.44376L169.243 12.639C169.065 12.568 168.817 12.497 168.497 12.355C168.178 12.2485 167.752 12.1065 167.29 12C166.828 11.8935 166.296 11.8225 165.728 11.787C165.337 11.7515 164.947 11.7515 164.556 11.787C164.095 11.8225 163.704 11.858 163.278 12C162.675 12.1775 162.178 12.497 161.823 12.923C161.184 13.7041 160.864 14.8047 160.828 16.2603L160.793 17.5029H167.716V21.1242H160.828V35.4674H156.391V16.2958ZM179.113 15.3017C180.639 15.3017 182.024 15.5503 183.337 16.0828C184.651 16.6154 185.787 17.3254 186.746 18.2485C187.704 19.1716 188.45 20.2722 189.018 21.5148C189.55 22.7929 189.834 24.142 189.834 25.6331C189.834 27.0887 189.55 28.4378 189.018 29.7159C188.485 30.994 187.704 32.0591 186.746 32.9822C185.787 33.9053 184.651 34.6508 183.337 35.1834C182.024 35.7159 180.604 36 179.113 36C177.621 36 176.201 35.7159 174.888 35.1834C173.574 34.6508 172.438 33.9053 171.479 32.9822C170.521 32.0591 169.775 30.9585 169.207 29.7159C168.675 28.4378 168.391 27.0887 168.391 25.6331C168.391 24.142 168.675 22.7574 169.207 21.5148C169.74 20.2367 170.521 19.1716 171.479 18.2485C172.438 17.3254 173.574 16.6154 174.888 16.0828C176.166 15.5503 177.586 15.3017 179.113 15.3017ZM179.113 32.0591C180 32.0591 180.817 31.8816 181.562 31.5621C182.308 31.2426 182.947 30.781 183.479 30.1775C184.012 29.6094 184.438 28.8994 184.722 28.1538C185.006 27.4082 185.184 26.5562 185.184 25.6331C185.184 24.71 185.042 23.858 184.722 23.0769C184.438 22.2958 184.012 21.5858 183.479 21.0177C182.947 20.4497 182.308 19.9881 181.562 19.6686C180.817 19.3491 180 19.1716 179.113 19.1716C178.189 19.1716 177.373 19.3491 176.627 19.6686C175.882 19.9881 175.243 20.4497 174.71 21.0177C174.178 21.5858 173.752 22.2603 173.468 23.0769C173.184 23.858 173.006 24.71 173.006 25.6331C173.006 26.5562 173.148 27.3727 173.468 28.1538C173.752 28.9349 174.178 29.6094 174.71 30.1775C175.243 30.7455 175.882 31.2071 176.627 31.5621C177.373 31.8816 178.189 32.0591 179.113 32.0591ZM192.284 23.6094C192.284 22.2958 192.533 21.1242 192.994 20.1301C193.491 19.1006 194.13 18.213 194.982 17.5029C195.834 16.7929 196.829 16.2248 198 15.8698C199.172 15.4793 200.414 15.3017 201.799 15.3017C203.184 15.3017 204.462 15.4793 205.633 15.8698C206.805 16.2603 207.799 16.7929 208.651 17.5029C209.503 18.213 210.142 19.1006 210.639 20.1301C211.101 21.1597 211.349 22.3313 211.349 23.6094V35.4319H206.911V24.7455C206.911 22.9704 206.485 21.6213 205.633 20.6982C204.781 19.7751 203.503 19.3136 201.834 19.3136C200.13 19.3136 198.852 19.7751 198.036 20.6982C197.184 21.6213 196.758 22.9704 196.758 24.7455V35.4674H192.32V23.6094H192.284Z" fill="black"></path>
<path fill-rule="evenodd" clip-rule="evenodd" d="M0 0V35.4675H35.858V0H0ZM17.9645 24.6391C20.2367 24.497 22.4024 24.1065 24 23.6095C14.9822 25.1361 6.24852 24.1065 1.49112 22.0118C6.71006 23.2899 15.6568 24.497 21.7278 22.7574C15.2663 23.2899 5.9645 23.0769 2.05917 20.5207C7.1716 22.4379 18.284 22.1539 23.787 20.8402C18.426 21.0888 7.73964 21.6568 3.83432 19.1716C8.4142 21.1598 25.8816 19.9527 31.1006 17.0059C23.4674 18.5326 11.1834 20.0237 4.8284 17.1124C8.94674 18.355 22.6509 17.5385 27.2308 16.4379C21.6213 17.0769 8.59171 17.6805 6.14201 16.1894C8.84023 16.9704 16.6154 16.7929 23.2544 15.7633C25.2781 15.4438 27.4793 14.9468 29.6095 14.3077C31.5266 13.7041 33.1953 13.3136 34.8284 12.426C34.9704 12.355 35.0769 12.284 35.1479 12.1775L34.5799 12.355C28.7219 13.9527 22.9704 14.6982 16.8994 14.9112C12.9586 15.0533 9.5858 14.9112 8.94674 14.2012C11.8935 14.3787 21.9763 14.6982 33.3373 10.4024C29.7515 11.2189 25.7751 12.142 21.8343 12.7456C20.1657 12.9231 17.1124 13.1716 15.6213 13.2071C13.5976 13.2781 11.574 13.1361 9.55029 12.8166C12.426 12.9231 15.9763 12.7456 19.3491 12.2485C22.0118 11.858 28.0118 10.5089 30.071 9.65681C27.4438 10.0828 21.4793 11.4675 19.1006 11.6805C15.1243 12 11.6095 12.1065 8.91124 11.645C15.5503 12.0355 21.6923 11.0414 26.3077 9.83432C23.3254 10.2249 20.8757 10.8639 18 11.0769V10.1183V0.639053H35.2189V34.7929H17.9645V24.6391Z" fill="#8FC9F0"></path>
</svg>