<svg version="1.1" id="Layer_1" xmlns:x="ns_extend;" xmlns:i="ns_ai;" xmlns:graph="ns_graphs;" xmlns="http://www.w3.org/2000/svg" xmlns:xlink="http://www.w3.org/1999/xlink" x="0px" y="0px" viewBox="0 0 742.9 193.9" style="enable-background:new 0 0 742.9 193.9;" xml:space="preserve">
 <style type="text/css">
  .st0{fill:url(#SVGID_1_);}
	.st1{fill-rule:evenodd;clip-rule:evenodd;fill:url(#SVGID_2_);}
	.st2{fill-rule:evenodd;clip-rule:evenodd;fill:url(#SVGID_3_);}
 </style>
 <metadata>
  <sfw xmlns="ns_sfw;">
   <slices>
   </slices>
   <sliceSourceBounds bottomLeftOrigin="true" height="193.9" width="742.9" x="-171.7" y="-289">
   </sliceSourceBounds>
  </sfw>
 </metadata>
 <g>
  <linearGradient id="SVGID_1_" gradientUnits="userSpaceOnUse" x1="117.3004" y1="-142.8116" x2="412.8104" y2="-71.9116" gradientTransform="matrix(1 0 0 -1 -106 15.7303)">
   <stop offset="0" style="stop-color:#FF177C">
   </stop>
   <stop offset="0.18" style="stop-color:#FF1678">
   </stop>
   <stop offset="0.36" style="stop-color:#FF146C">
   </stop>
   <stop offset="0.54" style="stop-color:#FF1057">
   </stop>
   <stop offset="0.72" style="stop-color:#FF0B3B">
   </stop>
   <stop offset="0.91" style="stop-color:#FF0416">
   </stop>
   <stop offset="1" style="stop-color:#FF0000">
   </stop>
  </linearGradient>
  <path class="st0" d="M81.9,151.4c0,23.4-18.3,42.4-40.9,42.4S0,174.9,0,151.4S18.3,109,40.9,109S81.9,128,81.9,151.4">
  </path>
  <linearGradient id="SVGID_2_" gradientUnits="userSpaceOnUse" x1="110.6707" y1="-115.1729" x2="406.1807" y2="-44.2829" gradientTransform="matrix(1 0 0 -1 -106 15.7303)">
   <stop offset="0" style="stop-color:#FF177C">
   </stop>
   <stop offset="0.18" style="stop-color:#FF1678">
   </stop>
   <stop offset="0.36" style="stop-color:#FF146C">
   </stop>
   <stop offset="0.54" style="stop-color:#FF1057">
   </stop>
   <stop offset="0.72" style="stop-color:#FF0B3B">
   </stop>
   <stop offset="0.91" style="stop-color:#FF0416">
   </stop>
   <stop offset="1" style="stop-color:#FF0000">
   </stop>
  </linearGradient>
  <path class="st1" d="M129.7,36.4c-4.1-14-11-24.8-34-25.2C73.9,10.9,52.3,31,55.9,59.8c3.8,30.3,26.5,25,45,37.7
		c23.6,16.1,6.8,41.1,12.1,68.2c8.6,44.4,81.7,33.9,78.8-14.6c0.1-0.8,0,0.9,0,0c0-13.6-8.4-25.8-21.1-30.7
		c-0.3-0.1-20.6-10-23.2-11.6c-17.1-10.4-15.9-34.5-16.2-55.4C131.3,53.4,132,44,129.7,36.4">
  </path>
  <linearGradient id="SVGID_3_" gradientUnits="userSpaceOnUse" x1="116.7796" y1="-140.6684" x2="412.2896" y2="-69.7684" gradientTransform="matrix(1 0 0 -1 -106 15.7303)">
   <stop offset="0" style="stop-color:#FF177C">
   </stop>
   <stop offset="0.18" style="stop-color:#FF1678">
   </stop>
   <stop offset="0.36" style="stop-color:#FF146C">
   </stop>
   <stop offset="0.54" style="stop-color:#FF1057">
   </stop>
   <stop offset="0.72" style="stop-color:#FF0B3B">
   </stop>
   <stop offset="0.91" style="stop-color:#FF0416">
   </stop>
   <stop offset="1" style="stop-color:#FF0000">
   </stop>
  </linearGradient>
  <path class="st2" d="M242.2,36.4c-4.1-14-11-24.8-34.1-25.2c-21.8-0.3-43.4,19.7-39.8,48.5c3.8,30.3,26.5,25,45,37.7
		c23.6,16.1,6.9,41.1,12.1,68.2c8.6,44.4,81.7,33.9,78.8-14.6c0.1-0.8,0,0.9,0,0c0-13.6-8.4-25.8-21.1-30.7
		c-0.3-0.1-20.6-10-23.2-11.6c-17-10.4-15.8-34.5-16.1-55.4C243.7,53.4,244.4,44,242.2,36.4">
  </path>
  <path d="M442.3,41.4v41.4c-6.9,1.1-13.9,1.1-20.8,0V45.9c0-8.2-3.9-12.5-11.6-12.5c-4,0-7.9,1.3-11.1,3.7c0.2,1.4,0.2,2.8,0.3,4.2
		v41.4c-3.4,0.5-6.9,0.8-10.4,0.8c-3.4,0-6.9-0.3-10.2-0.8V45.9c0-8.2-4-12.5-11.8-12.5c-3.7-0.1-7.4,0.9-10.6,2.8v46.5
		c-3.4,0.5-6.9,0.8-10.4,0.8c-3.4,0-6.9-0.3-10.2-0.8v-57c4.7-4,17-10.9,33.2-10.9c9.3,0,16.5,2.4,21.5,6.2c6.5-4.1,14-6.2,21.7-6.2
		C432.5,14.8,442.3,26,442.3,41.4z">
  </path>
  <path d="M452.9,50c0-21.2,15.2-35.2,36.1-35.2s35.8,13.7,35.8,35.2c0,21-15.2,35-36.1,35S452.9,71.7,452.9,50z M504.1,50
		c0-10.8-5.5-17.8-15.2-17.8c-9.7,0-15.4,7.1-15.4,17.8s5.7,17.8,15.4,17.8C498.6,67.8,504.1,60.6,504.1,50z">
  </path>
  <path d="M600.7,42.9v39.9c-6.9,1.1-13.9,1.1-20.8,0V46.2c0-9.4-5.1-12.7-12.5-12.7c-3.9-0.1-7.7,0.9-11.1,2.8v46.5
		c-3.4,0.5-6.9,0.8-10.4,0.8c-3.4,0-6.9-0.3-10.2-0.8v-57c5.1-4.6,16.9-10.9,33.2-10.9C590.9,14.8,600.7,26.7,600.7,42.9z">
  </path>
  <path d="M668.1,77.5c-6,4.9-13.6,7.5-21.3,7.3c-15.1,0-26.4-6.4-26.4-22.4V35h-11.2c-0.4-2.8-0.7-5.7-0.7-8.6
		c0-2.8,0.3-5.6,0.7-8.3h11.2V0.8c3.5-0.5,7-0.8,10.5-0.8c3.4,0,6.7,0.3,10,0.8v17.3h23c0.6,2.7,0.9,5.4,1,8.2
		c-0.1,2.9-0.4,5.9-1,8.7h-23v22.3c0,7.5,3.5,10,9.5,10c3.4-0.1,6.7-1.5,9.1-3.9C663.6,65.7,667.4,72,668.1,77.5z">
  </path>
  <path d="M742.9,18.4c-5.7,41.9-21.7,72.8-51.3,94c-6.4-2.2-10.5-8.3-12.3-14.2c7.3-5.8,13.8-11.8,18-17.4
		c-13.4-20.8-19.5-38.8-24.6-62.4c5-1,10-1.5,15.1-1.5c2.6,0,5.2,0.1,7.8,0.4c2.5,15.3,6.8,30.3,12.7,44.7c0.6,1.2,1,2.5,1.4,3.7
		c0.3-1.3,0.6-2.5,1.1-3.7c5.7-13.3,8.9-29.5,10.8-44.7c2.6-0.3,5.5-0.4,8.2-0.4C734.2,16.7,738.6,17.3,742.9,18.4z">
  </path>
  <path d="M440,147.9v40.6c-6.7,1.1-13.6,1.1-20.4,0v-36.1c0-8-3.8-12.2-11.4-12.2c-3.9,0-7.8,1.3-10.9,3.7c0.1,1.4,0.3,2.7,0.3,4.1
		v40.6c-3.4,0.5-6.8,0.8-10.2,0.8c-3.4,0-6.7-0.3-10-0.8v-36.1c0-8-3.9-12.2-11.5-12.2c-3.7-0.1-7.3,0.9-10.5,2.7v45.6
		c-3.4,0.5-6.8,0.8-10.2,0.8c-3.4,0-6.7-0.3-10-0.8v-56c4.6-3.9,16.7-10.7,32.6-10.7c9.1,0,16.2,2.3,21,6.1c6.4-4,13.8-6.1,21.3-6.1
		C430.4,121.8,440,132.8,440,147.9z">
  </path>
  <path d="M450.5,156.3c0-20.8,14.9-34.5,35.4-34.5s35.2,13.4,35.2,34.5c0,20.6-14.9,34.4-35.4,34.4S450.5,177.7,450.5,156.3z
		 M500.7,156.3c0-10.6-5.4-17.5-14.9-17.5s-15,6.9-15,17.5s5.6,17.5,15.1,17.5C495.3,173.8,500.7,166.8,500.7,156.3L500.7,156.3z">
  </path>
  <path d="M598.6,155.7c0,21.9-14.8,35-38.2,35c-10.7,0-21-2.3-28.5-6.2V99.3c3.3-0.6,6.6-0.9,10-0.8c3.4-0.1,6.8,0.2,10.2,0.8v24.6
		c3.5-1.2,7.3-1.7,11-1.6C583.4,122.2,598.6,133.8,598.6,155.7z M578.2,156.5c0-9.8-5.8-16.8-16.4-16.8c-3.3,0-6.5,0.5-9.6,1.6v30.8
		c3.1,1,6.4,1.5,9.6,1.5C572.3,173.6,578.2,166.9,578.2,156.5L578.2,156.5z">
  </path>
  <path d="M607.8,103.5c0-6.7,5.5-12.2,12.2-12.2c6.7,0,12.2,5.5,12.2,12.2l0,0c0,6.7-5.5,12.2-12.2,12.2
		C613.3,115.7,607.8,110.2,607.8,103.5z M609.8,188.5V124c3.3-0.5,6.6-0.8,10-0.8c3.4,0,6.8,0.3,10.2,0.8v64.5
		c-3.4,0.5-6.8,0.8-10.2,0.8C616.5,189.3,613.2,189,609.8,188.5L609.8,188.5z">
  </path>
  <path d="M644.6,188.5V99.6c3.3-0.6,6.6-0.8,9.9-0.8c3.5,0,7,0.3,10.5,0.8v88.9c-3.3,0.5-6.6,0.8-10,0.8
		C651.5,189.3,648.1,189,644.6,188.5z">
  </path>
  <path d="M739.8,161.3h-42.9c1.2,9.1,6.2,13.2,15.9,13.2c8.2,0,14-3.3,19-6.5c4.1,3.4,6.8,8.3,7.3,13.7c-5.7,4.3-14.5,9.1-28.5,9.1
		c-20,0-34.4-12.4-34.4-33.9c0-20.4,14.4-34.6,33.7-34.6c18.2,0,30.5,11.5,30.5,29.6C740.5,155,740.3,158.2,739.8,161.3z
		 M721.4,149.9c0-6.2-3-11.9-11.3-12.4c-7.7,0-12.2,5-13.2,12.4H721.4z">
  </path>
 </g>
</svg>