<svg width="144" height="24" viewBox="0 0 144 24" fill="none" xmlns="http://www.w3.org/2000/svg"><path d="M125.925 19.9541H110.803V23.6033H125.925V19.9541Z" fill="#0D3497"></path><path d="M97.2667 0.395508H88.2561V23.6023H92.2721V16.1462H96.8143C101.841 16.1462 105.956 13.4279 105.956 8.22341C105.956 3.47976 102.591 0.396482 97.2672 0.396482M96.9394 12.4649H92.2721V4.10897H96.9394C99.9445 4.10897 101.867 5.53673 101.867 8.25016C101.872 10.7412 99.9762 12.4653 96.9394 12.4653" fill="#0D3497"></path><path d="M136.196 19.8908V0.396484H132.18V23.6033H144V19.8908H136.196Z" fill="#0D3497"></path><path d="M125.925 10.0752H110.803V13.7191H125.925V10.0752Z" fill="#0D3497"></path><path d="M125.925 0.396484H110.803V4.04035H125.925V0.396484Z" fill="#0D3497"></path><path d="M10.3435 10.1432C5.96811 9.08045 4.92757 8.28725 4.92757 6.49354C4.92757 4.90178 6.29738 3.67498 8.64638 3.67498C10.7356 3.67498 12.7927 4.50517 14.8503 6.05946L17.0071 2.97619C14.6888 1.08807 12.0479 0.0622559 8.71539 0.0622559C4.17844 0.0622559 0.912088 2.81219 0.912088 6.7894C0.912088 11.1316 3.65219 12.591 8.52272 13.7482C12.7678 14.7764 13.6784 15.6757 13.6784 17.3303C13.6784 19.1551 12.1107 20.3133 9.63132 20.3133C6.79201 20.3133 4.60453 19.2184 2.41658 17.2986L0 20.2126C2.74489 22.6982 6.04192 23.9255 9.53785 23.9255C14.3351 23.9255 17.7001 21.3391 17.7001 16.9969C17.6896 13.0942 15.1791 11.3331 10.345 10.1428" fill="#0D3497"></path><path d="M32.346 20.2554C27.9706 20.2554 24.8034 16.5429 24.8034 11.9998C24.8034 7.39333 27.9706 3.74411 32.346 3.74411C34.9557 3.74411 36.9141 4.90229 38.7426 6.62641L41.3211 3.61175C39.1332 1.49103 36.5863 0 32.3771 0C25.4548 0 20.5895 5.40497 20.5895 11.9998C20.5895 14.5224 21.2873 16.8441 22.5115 18.7537L20.5061 23.9893L25.7673 22.0749C27.5852 23.2915 29.7885 24 32.2156 24C36.4923 24 39.102 22.4078 41.4875 19.8904L38.9094 17.2359C36.9505 19.0919 35.1537 20.2554 32.346 20.2554Z" fill="#0D3497"></path><path d="M52.875 0.232666L42.8219 23.6035H46.9366L49.2851 18.0024H60.0936L62.4114 23.6035H66.6569L56.5986 0.232666H52.875ZM50.7551 14.3853L54.6718 5.10333L58.6202 14.3853H50.7551Z" fill="#0D3497"></path><path d="M82.1333 7.79226C82.1333 3.3182 78.9973 0.398926 73.6427 0.398926H63.454L63.1664 0.404272L64.7658 4.11676L67.469 4.10605H73.3134C76.2879 4.10605 78.0483 5.46521 78.0483 7.95041C78.0483 10.3728 76.2198 11.896 73.3513 11.896H68.1213L69.4441 14.9739L69.7513 15.5092H72.4353L78.1183 23.5955H82.8532L76.6862 14.8216C79.8845 13.8907 82.1347 11.606 82.1347 7.79275" fill="#0D3497"></path></svg>