<svg version="1.1" id="Layer_1" xmlns:x="ns_extend;" xmlns:i="ns_ai;" xmlns:graph="ns_graphs;" xmlns="http://www.w3.org/2000/svg" xmlns:xlink="http://www.w3.org/1999/xlink" x="0px" y="0px" viewBox="0 0 272.4 56" style="enable-background:new 0 0 272.4 56;" xml:space="preserve">
 <metadata>
  <sfw xmlns="ns_sfw;">
   <slices>
   </slices>
   <sliceSourceBounds bottomLeftOrigin="true" height="56" width="272.4" x="-154.4" y="1.8">
   </sliceSourceBounds>
  </sfw>
 </metadata>
 <g>
  <path d="M90.3,22c-2.1-2.9-5-5.2-8.3-6.4c-2.2-0.8-4.5-1.2-6.8-1.2c-4,0-8.3,1.3-12.4,3.7L26.7,39.2c-5.6,3.3-9.8,2.8-12.3,1.9
		c-1.9-0.7-3.4-1.9-4.6-3.5C8.7,36,8.1,34.1,8,32.2c0-2,0.6-3.9,1.7-5.5c1.1-1.6,2.7-2.8,4.5-3.5c2.5-1,6.7-1.5,12.3,1.7l4.1,2.3
		c-0.2,0.8-0.4,1.7-0.5,2.5l-0.2,1.6l30.8-17.8l0.1,0c0.8-0.6,1.4-1.4,1.6-2.4c0.2-1,0-2-0.5-2.9c-0.5-0.9-1.3-1.5-2.3-1.8
		c-1-0.3-2-0.2-2.9,0.2l0,0l-10,5.8L36.6,6.6l-0.1,0c-0.9-0.4-2-0.5-2.9-0.2c-1,0.3-1.8,1-2.3,1.8c-0.5,0.9-0.6,1.9-0.4,2.9
		c0.2,1,0.8,1.8,1.7,2.4l6.2,3.5l-0.9,0.5l0,0c-1.2,0.8-2.3,1.7-3.3,2.7L30.5,18c-6.6-3.7-13.4-4.5-19.2-2.3
		c-2.4,0.9-4.7,2.4-6.5,4.3c-1.8,1.9-3.2,4.2-4,6.7c-1.4,4.4-1.1,9,0.9,13.1c2,4.1,5.5,7.2,9.8,8.8c2.2,0.8,4.5,1.2,6.8,1.2
		c4,0,8.3-1.3,12.4-3.7l0.1,0l36-21.1c5.6-3.3,9.8-2.8,12.3-1.9c1.9,0.7,3.4,1.9,4.6,3.5c1.1,1.6,1.7,3.5,1.7,5.5c0,1-0.2,2.1-0.5,3
		c-0.5,1.3-1.2,2.6-2.2,3.6c-1,1-2.2,1.8-3.5,2.3c-2.5,1-6.7,1.5-12.3-1.7L62.8,37c0.3-0.9,0.4-1.8,0.6-2.7l0.2-1.6l-24,14V56
		l16-9.3l0,0c1.2-0.8,2.3-1.7,3.3-2.7l4.1,2.3c6.6,3.7,13.4,4.5,19.2,2.3c3.4-1.3,6.2-3.5,8.3-6.5c2-3,3.1-6.4,3.1-10h0
		C93.4,28.4,92.3,24.9,90.3,22L90.3,22z">
  </path>
  <path d="M115.7,42.6l7.7-4.4c1.5,3,4.1,4.5,7.7,4.5c3.4,0,5.5-1.5,5.5-3.7c0-2.2-2.9-2.9-7.9-3.9c-6.8-1.5-11.2-4.3-11.2-10.1
		c0-6.3,6.4-10.6,13.5-10.6c6,0,10.2,1.6,13.9,6.3l-7.3,4.2c-1.4-2.4-3.5-3.6-6.5-3.6c-3.1,0-4.9,1.4-4.9,3.2c0,2.3,3.5,2.8,8.1,3.9
		c6.4,1.6,11.3,3.8,11.3,10.2c0,6.6-6.5,11.1-14.6,11.1C124.1,49.8,119,47.9,115.7,42.6z M150,48.8V19.4l8.6-5v34.4L150,48.8z
		 M164.7,48.8V30.7c0-9.3,6.8-16.4,16.4-16.4c9.7,0,16.4,7.5,16.4,16.4v18.1h-8.7V31.3c0-5.3-3.2-8.5-7.7-8.5
		c-4.8,0-7.7,3.4-7.7,8.5v17.5L164.7,48.8z M202,32c0-10.3,7.4-17.6,17.9-17.6c6.5,0,12.3,3.4,15.1,8.6l-7.4,4.4
		c-0.7-1.4-1.8-2.6-3.2-3.4c-1.4-0.8-3-1.2-4.6-1.2c-5.1,0-8.9,3.8-8.9,9.3c0,5.3,3.6,9.4,8.9,9.4c3.5,0,6.5-1.7,7.9-4.6l7.4,4.3
		c-1.5,2.7-3.7,4.9-6.4,6.4c-2.7,1.5-5.7,2.3-8.8,2.3C209.5,49.8,202,42.3,202,32z M239.7,48.8V5l8.6-5v16.9c2.4-1.6,5.1-2.5,8-2.6
		c9.5,0,16.1,6.5,16.1,16.1v18.3h-8.7V31.3c0-5.3-3.2-8.5-7.7-8.5c-4.8,0-7.7,3.4-7.7,8.5v17.5H239.7z">
  </path>
 </g>
</svg>