<svg xmlns="http://www.w3.org/2000/svg" width="1041" height="278" viewBox="0 0 1041 278" fill="none"><path d="M301.098 265.289H160.816V278H301.098V265.289Z" fill="#1A4788"></path><path d="M388.865 265.289H301.098V278H388.865V265.289Z" fill="#F1892C"></path><path d="M476.632 265.289H388.865V278H476.632V265.289Z" fill="#B3BC35"></path><path d="M564.412 265.289H476.633V278H564.412V265.289Z" fill="#0AA5DF"></path><path d="M652.179 265.289H564.411V278H652.179V265.289Z" fill="#B22473"></path><path d="M880.217 265.289H652.18V278H880.217V265.289Z" fill="#1A4788"></path><path d="M121.772 69.2631V78.303H71.2666V197H62.2268V78.303H11.5251V69.2631H121.772ZM232.99 197V187.764H159.1V137.651H216.679V128.612H159.1V78.303H232.99V69.2631H150.256V197H232.99ZM347.128 197V188.157H275.398V69.2631H266.555V197H347.128ZM463.477 197V187.764H389.586V137.651H447.166V128.612H389.586V78.303H463.477V69.2631H380.743V197H463.477ZM553.639 198.376C563.465 198.376 572.767 196.279 581.545 192.087C590.323 187.764 597.79 181.737 603.948 174.007L596.873 168.505C591.502 175.055 585.017 180.165 577.418 183.833C569.95 187.502 562.024 189.336 553.639 189.336C543.551 189.336 534.249 186.847 525.734 181.868C517.218 176.759 510.405 169.88 505.296 161.234C500.317 152.587 497.828 143.154 497.828 132.935C497.828 122.716 500.317 113.283 505.296 104.636C510.405 95.9896 517.218 89.177 525.734 84.1985C534.249 79.089 543.551 76.5343 553.639 76.5343C561.5 76.5343 568.968 78.1719 576.042 81.4473C583.248 84.7226 589.471 89.308 594.712 95.2035L601.59 89.1115C595.301 82.2988 587.964 77.0583 579.58 73.39C571.326 69.5906 562.679 67.691 553.639 67.691C541.979 67.691 531.171 70.6387 521.214 76.5343C511.257 82.4298 503.396 90.3561 497.631 100.313C491.867 110.27 488.985 121.144 488.985 132.935C488.985 144.726 491.867 155.666 497.631 165.754C503.396 175.711 511.257 183.637 521.214 189.532C531.171 195.428 541.979 198.376 553.639 198.376ZM690.089 198.376C701.749 198.376 712.557 195.493 722.514 189.729C732.471 183.833 740.332 175.907 746.097 165.95C751.861 155.862 754.743 144.923 754.743 133.132C754.743 121.34 751.861 110.466 746.097 100.51C740.332 90.4216 732.471 82.4953 722.514 76.7308C712.557 70.8353 701.749 67.8875 690.089 67.8875C678.429 67.8875 667.62 70.8353 657.663 76.7308C647.706 82.4953 639.846 90.4216 634.081 100.51C628.317 110.466 625.434 121.34 625.434 133.132C625.434 144.923 628.317 155.862 634.081 165.95C639.846 175.907 647.706 183.833 657.663 189.729C667.62 195.493 678.429 198.376 690.089 198.376ZM690.089 76.9273C700.177 76.9273 709.479 79.4821 717.994 84.5915C726.51 89.57 733.257 96.3826 738.236 105.029C743.214 113.545 745.704 122.913 745.704 133.132C745.704 143.351 743.214 152.783 738.236 161.43C733.257 169.946 726.51 176.759 717.994 181.868C709.479 186.847 700.177 189.336 690.089 189.336C680.001 189.336 670.699 186.847 662.183 181.868C653.668 176.759 646.855 169.946 641.745 161.43C636.767 152.783 634.278 143.351 634.278 133.132C634.278 122.913 636.767 113.545 641.745 105.029C646.855 96.3826 653.668 89.57 662.183 84.5915C670.699 79.4821 680.001 76.9273 690.089 76.9273ZM915.047 197V67.691L849.606 161.234L783.38 67.691V197H792.223V95.7931L849.606 176.759L906.204 95.9896V197H915.047ZM1025.79 188.157V197H948.557C953.142 190.711 961.199 179.772 972.728 164.181C984.257 148.46 994.673 134.376 1003.97 121.93C1008.95 115.248 1011.44 108.37 1011.44 101.296C1011.44 99.5924 1011.38 98.2823 1011.25 97.3652C1010.07 90.1596 1006.66 84.7881 1001.03 81.2507C996.703 78.1064 991.856 76.5343 986.485 76.5343C984.257 76.5343 982.161 76.7963 980.196 77.3204C972.204 79.1545 964.999 84.002 958.579 91.8627C957.4 93.0418 956.286 94.2864 955.238 95.5966C954.19 96.9067 953.469 97.8238 953.076 98.3478L946.002 93.2383L951.701 85.9672C955.5 81.3817 959.627 77.5824 964.081 74.5691C968.667 71.5558 973.383 69.5251 978.231 68.477C981.244 67.822 983.995 67.4944 986.485 67.4944C993.428 67.4944 999.979 69.5906 1006.14 73.783C1013.87 79.2855 1018.52 86.6222 1020.09 95.7931C1020.35 98.1513 1020.48 99.92 1020.48 101.099C1020.48 109.615 1017.53 118.065 1011.64 126.45C995.131 148.329 979.934 168.898 966.047 188.157H1025.79Z" fill="black"></path></svg>