<svg width="32" height="32" viewBox="0 0 32 32" fill="none" xmlns="http://www.w3.org/2000/svg">
<rect width="32" height="32" fill="#D9D9D9"/>
<circle cx="11.862" cy="13.1676" r="1.9279" fill="#2B2DAD"/>
<circle cx="18.6095" cy="13.1676" r="1.9279" fill="#2B2DAD"/>
<circle cx="18.974" cy="19.3866" r="2.29232" fill="#2B2DAD"/>
<circle cx="12.2264" cy="19.786" r="2.29232" fill="#2B2DAD"/>
<ellipse cx="25.099" cy="12.909" rx="1.66928" ry="1.66928" fill="#2B2DAD"/>
<ellipse cx="25.099" cy="18.7635" rx="1.66928" ry="1.66928" fill="#2B2DAD"/>
<circle cx="24.887" cy="23.5594" r="1.34013" fill="#2B2DAD"/>
<ellipse cx="19.5148" cy="24.0182" rx="1.6105" ry="1.6105" fill="#2B2DAD"/>
<ellipse cx="12.7672" cy="24.5587" rx="1.6105" ry="1.6105" fill="#2B2DAD"/>
<ellipse cx="12.791" cy="29.4961" rx="0.928684" ry="0.928684" fill="#2B2DAD"/>
<ellipse cx="19.5151" cy="29.1435" rx="0.928684" ry="0.928684" fill="#2B2DAD"/>
<ellipse cx="7.24234" cy="23.924" rx="1.6105" ry="1.6105" fill="#2B2DAD"/>
<ellipse cx="7.01889" cy="12.909" rx="1.66928" ry="1.66928" fill="#2B2DAD"/>
<ellipse cx="6.70149" cy="18.4461" rx="1.35188" ry="1.35188" fill="#2B2DAD"/>
<circle cx="7.00689" cy="8.05425" r="1.42241" fill="#2B2DAD"/>
<circle cx="12.3677" cy="7.84234" r="1.42241" fill="#2B2DAD"/>
<ellipse cx="12.7792" cy="3.71624" rx="0.916928" ry="0.916928" fill="#2B2DAD"/>
<ellipse cx="18.0688" cy="2.91693" rx="0.916928" ry="0.916928" fill="#2B2DAD"/>
<ellipse cx="19.1507" cy="7.85432" rx="1.97492" ry="1.97492" fill="#2B2DAD"/>
<ellipse cx="25.1574" cy="7.84244" rx="1.6105" ry="1.6105" fill="#2B2DAD"/>
<circle cx="1.88166" cy="13.1561" r="0.881662" fill="#2B2DAD"/>
<circle cx="1.88166" cy="18.5164" r="0.881662" fill="#2B2DAD"/>
<circle cx="29.7776" cy="12.909" r="1.03448" fill="#2B2DAD"/>
<circle cx="29.9656" cy="19.1629" r="1.03448" fill="#2B2DAD"/>
</svg>
